<svg width="30" height="31" viewBox="0 0 30 31" fill="none" xmlns="http://www.w3.org/2000/svg">
<path fill-rule="evenodd" clip-rule="evenodd" d="M6.27923 15.2062C6.27923 14.2185 6.44459 13.2715 6.73971 12.3833L1.57399 8.46973C0.567224 10.4977 0 12.7829 0 15.2062C0 17.6275 0.566526 19.9113 1.5719 21.9379L6.73483 18.0167C6.44249 17.1326 6.27923 16.1891 6.27923 15.2062Z" fill="#FBBC05"/>
<path fill-rule="evenodd" clip-rule="evenodd" d="M15.3495 6.22086C17.5123 6.22086 19.4658 6.98118 21.0008 8.22535L25.466 3.80163C22.745 1.45153 19.2565 0 15.3495 0C9.28372 0 4.07056 3.44152 1.57422 8.47004L6.73993 12.3837C7.9302 8.79906 11.3231 6.22086 15.3495 6.22086Z" fill="#EB4335"/>
<path fill-rule="evenodd" clip-rule="evenodd" d="M15.3495 24.1921C11.3231 24.1921 7.9302 21.6139 6.73993 18.0293L1.57422 21.9422C4.07056 26.9714 9.28372 30.4129 15.3495 30.4129C19.0933 30.4129 22.6676 29.0941 25.3502 26.6231L20.4468 22.8622C19.0633 23.7269 17.3211 24.1921 15.3495 24.1921Z" fill="#34A853"/>
<path fill-rule="evenodd" clip-rule="evenodd" d="M30.0002 15.2067C30.0002 14.3082 29.8606 13.3405 29.6513 12.4419H15.3486V18.3171H23.5814C23.1698 20.3203 22.0493 21.8603 20.446 22.8625L25.3494 26.6234C28.1673 24.0286 30.0002 20.1634 30.0002 15.2067Z" fill="#4285F4"/>
</svg>
