<svg width="30" height="30" viewBox="0 0 30 30" fill="none" xmlns="http://www.w3.org/2000/svg">
<path d="M4.28571 0H25.7143C28.0714 0 30 1.91336 30 4.2519V25.5114C30 27.85 28.0714 29.7633 25.7143 29.7633H4.28571C1.92857 29.7633 0 27.85 0 25.5114V4.2519C0 1.91336 1.92857 0 4.28571 0Z" fill="black"/>
<path d="M5.78432 17.6458C5.78432 13.8191 7.71289 9.9924 9.96289 9.9924C11.1415 9.9924 12.2129 10.7365 13.82 12.9687C12.32 15.201 11.4629 16.6891 11.4629 16.6891C9.42718 19.7718 8.78432 20.5159 7.60575 20.5159C6.42718 20.4096 5.78432 19.4529 5.78432 17.6458ZM18.9629 16.264L17.57 14.0317C17.2486 13.3939 16.82 12.8624 16.4986 12.3309C17.7843 10.4176 18.7486 9.46091 20.0343 9.46091C22.6057 9.46091 24.6415 13.1813 24.6415 17.7521C24.6415 19.4529 24.1057 20.5159 22.9272 20.5159C21.6415 20.4096 21.1057 19.6655 18.9629 16.264ZM15.32 10.7365C13.3915 8.39794 11.8915 7.44126 9.96289 7.44126C6.10575 7.44126 3.21289 12.4372 3.21289 17.6458C3.21289 20.941 4.82003 22.9607 7.4986 22.9607C9.42718 22.9607 10.82 22.1103 13.2843 17.7521C13.2843 17.7521 14.3557 15.9451 14.9986 14.6695C15.2129 15.0947 15.5343 15.5199 15.7486 15.9451L16.9272 17.8584C19.1772 21.5788 20.4629 22.8544 22.7129 22.8544C25.2843 22.8544 26.7843 20.7285 26.7843 17.4332C26.7843 11.9058 23.7843 7.33496 20.1415 7.33496C18.2129 7.44126 16.7129 8.92942 15.32 10.7365Z" fill="white"/>
</svg>
