<svg width="30" height="30" viewBox="0 0 30 30" fill="none" xmlns="http://www.w3.org/2000/svg">
<path d="M15 30C23.2843 30 30 23.2843 30 15C30 6.71573 23.2843 0 15 0C6.71573 0 0 6.71573 0 15C0 23.2843 6.71573 30 15 30Z" fill="#FFFA37"/>
<path fill-rule="evenodd" clip-rule="evenodd" d="M20.3831 6.62775C19.3487 5.32412 17.6421 4.28613 15.0113 4.28613C12.7584 4.30832 8.25266 5.55519 8.25266 10.3652C8.25266 11.0676 8.30826 12.0085 8.35685 12.7012C8.29958 12.6846 8.22919 12.6535 8.11762 12.6L8.10212 12.5926C7.90484 12.4979 7.60487 12.3538 7.18768 12.3538C6.76623 12.3538 6.35872 12.5189 6.05619 12.7637C5.75549 13.0069 5.4986 13.381 5.4986 13.8331C5.4986 14.3987 5.8169 14.7741 6.18908 15.0149C6.51966 15.2287 6.93651 15.3653 7.2665 15.4735L7.29913 15.4841C7.65234 15.6 7.91121 15.6883 8.0897 15.7995C8.22863 15.8862 8.24972 15.9409 8.25233 15.993C8.25052 16.0004 8.24627 16.0163 8.23702 16.0423C8.21797 16.0958 8.18629 16.1682 8.13999 16.2586C8.04761 16.439 7.9129 16.6609 7.75265 16.8975C7.42938 17.3748 7.03486 17.8643 6.74016 18.1478C6.44948 18.4275 5.97248 18.775 5.47378 19.0516C5.22646 19.1887 4.98461 19.3024 4.76825 19.3805C4.54491 19.4611 4.38125 19.4918 4.28012 19.4918C4.20006 19.4918 4.13077 19.5082 4.10054 19.5158C4.05803 19.5265 4.01404 19.5405 3.97053 19.5569C3.88422 19.5892 3.78135 19.6379 3.67946 19.7065C3.48479 19.8375 3.21289 20.1017 3.21289 20.5185C3.21289 20.736 3.26396 20.9202 3.35223 21.0799C3.4295 21.2197 3.52882 21.3259 3.58599 21.387L3.59448 21.396L3.61029 21.413C3.92469 21.7513 4.44512 21.9867 4.95034 22.1481C5.38445 22.2869 5.86982 22.3903 6.34277 22.4523C6.34944 22.4828 6.35643 22.5156 6.36407 22.5516L6.36653 22.5633C6.39631 22.7037 6.43575 22.8897 6.49383 23.0612C6.54863 23.223 6.64788 23.4622 6.85108 23.6327C7.10986 23.8497 7.44833 23.8716 7.66918 23.8708C7.90625 23.8698 8.18304 23.8364 8.44568 23.8048L8.46805 23.8021C8.83757 23.7575 9.22425 23.7116 9.62464 23.7116C10.3554 23.7116 10.8238 24.0168 11.5587 24.5187L11.5636 24.5221C11.8182 24.696 12.1032 24.8906 12.4272 25.082C13.5117 25.7228 14.3928 25.7174 14.8922 25.7142C14.9252 25.714 14.9564 25.7138 14.986 25.7138C15.0155 25.7138 15.047 25.714 15.0801 25.7142C15.5804 25.7174 16.485 25.7232 17.57 25.082C17.894 24.8906 18.179 24.696 18.4335 24.5221L18.4385 24.5187C19.1734 24.0168 19.6419 23.7116 20.3726 23.7116C20.773 23.7116 21.1596 23.7575 21.5292 23.8021L21.5516 23.8048C21.8142 23.8364 22.0909 23.8698 22.328 23.8708C22.5489 23.8716 22.8873 23.8497 23.1462 23.6327C23.3493 23.4622 23.4485 23.223 23.5034 23.0612C23.5615 22.8898 23.6009 22.7038 23.6307 22.5633L23.6331 22.5516C23.6408 22.5156 23.6477 22.4828 23.6545 22.4523C24.1274 22.3903 24.6128 22.2869 25.0469 22.1481C25.5521 21.9867 26.0726 21.7512 26.3869 21.4129L26.4028 21.396L26.4111 21.387C26.4684 21.3259 26.5677 21.2197 26.6449 21.0799C26.7332 20.9202 26.7843 20.736 26.7843 20.5185C26.7843 20.1017 26.5124 19.8375 26.3177 19.7065C26.2158 19.6379 26.113 19.5892 26.0267 19.5569C25.9832 19.5405 25.9392 19.5265 25.8966 19.5158C25.8664 19.5082 25.7971 19.4918 25.7171 19.4918C25.6159 19.4918 25.4523 19.4611 25.2289 19.3805C25.0126 19.3024 24.7708 19.1887 24.5234 19.0516C24.0248 18.775 23.5478 18.4275 23.2571 18.1478C22.9623 17.8643 22.5678 17.3748 22.2446 16.8975C22.0843 16.6609 21.9496 16.439 21.8573 16.2586C21.811 16.1682 21.7793 16.0958 21.7602 16.0423C21.751 16.0163 21.7467 16.0004 21.7449 15.993C21.7475 15.9409 21.7685 15.8862 21.9075 15.7995C22.086 15.6883 22.3449 15.6 22.6981 15.4841L22.7307 15.4735C23.0607 15.3653 23.4776 15.2287 23.8081 15.0149C24.1803 14.7741 24.4986 14.3987 24.4986 13.8331C24.4986 13.381 24.2417 13.0069 23.941 12.7637C23.6385 12.5189 23.2309 12.3538 22.8095 12.3538C22.3923 12.3538 22.0924 12.4979 21.8951 12.5926L21.8796 12.6C21.768 12.6535 21.6976 12.6846 21.6404 12.7012C21.6889 12.0085 21.7445 11.0676 21.7445 10.3652C21.7445 9.41153 21.3978 7.90653 20.3831 6.62775ZM10.4806 7.25693C9.62239 8.3313 9.32828 9.60706 9.32828 10.3652C9.32828 11.0682 9.38786 12.0447 9.43811 12.745C9.45482 12.9775 9.40714 13.2486 9.204 13.4638C8.99839 13.6816 8.71875 13.7523 8.4689 13.7523C8.10813 13.7523 7.83375 13.6203 7.65823 13.5359L7.63785 13.5261C7.44201 13.4322 7.33905 13.3886 7.18768 13.3886C7.04998 13.3886 6.88186 13.4477 6.74854 13.5556C6.61341 13.6649 6.57423 13.7719 6.57423 13.8331C6.57423 13.9578 6.62023 14.047 6.78926 14.1562C6.9889 14.2853 7.27335 14.3824 7.64624 14.5048L7.6787 14.5154C7.98838 14.6168 8.37194 14.7425 8.67461 14.9312C9.01436 15.1429 9.32828 15.4833 9.32828 16.0077C9.32828 16.1451 9.29025 16.2775 9.25457 16.3776C9.21589 16.4864 9.16361 16.6012 9.10489 16.7158C8.98746 16.9453 8.82857 17.2045 8.65393 17.4623C8.30735 17.9741 7.86686 18.5273 7.50075 18.8795C7.13062 19.2356 6.57399 19.6357 6.01102 19.9481C5.72749 20.1052 5.43148 20.2462 5.14605 20.3493C4.89054 20.4415 4.61518 20.5137 4.35101 20.525C4.34443 20.5278 4.33715 20.5311 4.32953 20.5349C4.31735 20.5411 4.30596 20.5476 4.29602 20.5544L4.29094 20.5579C4.29194 20.565 4.29307 20.5702 4.29403 20.574C4.29614 20.5822 4.29864 20.5881 4.30202 20.5942C4.31238 20.613 4.32871 20.6339 4.39478 20.7047L4.41212 20.7232C4.53115 20.8514 4.82449 21.0176 5.28948 21.1662C5.73233 21.3077 6.25599 21.4099 6.75076 21.4568C6.9983 21.4803 7.14097 21.635 7.20136 21.7184C7.26352 21.8041 7.29907 21.8947 7.31985 21.9548C7.36004 22.0712 7.39039 22.2146 7.41434 22.3276L7.41797 22.3447C7.45066 22.4988 7.47926 22.6306 7.51655 22.7406C7.52973 22.7796 7.54189 22.8092 7.55236 22.831C7.57596 22.8337 7.61217 22.8363 7.6646 22.8361C7.8921 22.8351 8.11986 22.8013 8.34527 22.7741C8.70589 22.7306 9.15214 22.6768 9.62464 22.6768C10.7205 22.6768 11.4436 23.1709 12.1422 23.6482L12.1814 23.675C12.4398 23.8515 12.6989 24.0282 12.9902 24.2003C13.8111 24.6855 14.4358 24.682 14.8922 24.6794C14.9242 24.6793 14.9555 24.6791 14.986 24.6791C15.0162 24.6791 15.0472 24.6793 15.0793 24.6794C15.5406 24.6818 16.1863 24.6854 17.007 24.2003C17.2983 24.0282 17.5574 23.8515 17.8158 23.675L17.855 23.6482C18.5536 23.1709 19.2767 22.6768 20.3726 22.6768C20.8451 22.6768 21.2913 22.7306 21.652 22.7741L21.6628 22.7753C21.9544 22.8105 22.1679 22.8353 22.3326 22.8361C22.385 22.8363 22.4213 22.8337 22.4448 22.831C22.4553 22.8092 22.4674 22.7796 22.4807 22.7406C22.518 22.6306 22.5465 22.4988 22.5793 22.3447L22.5829 22.3276C22.6068 22.2145 22.6371 22.0712 22.6773 21.9548C22.6981 21.8947 22.7337 21.8041 22.7958 21.7184C22.8563 21.635 22.999 21.4803 23.2465 21.4568C23.7413 21.4099 24.2649 21.3077 24.7077 21.1662C25.1727 21.0176 25.466 20.8514 25.5851 20.7233L25.6024 20.7047C25.6684 20.6339 25.6848 20.613 25.6952 20.5942C25.6985 20.5881 25.7011 20.5822 25.7031 20.574C25.7041 20.5702 25.7053 20.565 25.7063 20.5579L25.7012 20.5544C25.6913 20.5476 25.6799 20.5411 25.6677 20.5349C25.6601 20.531 25.6528 20.5278 25.6463 20.525C25.382 20.5137 25.1067 20.4415 24.8511 20.3493C24.5657 20.2462 24.2697 20.1052 23.9862 19.9481C23.4233 19.6357 22.8666 19.2356 22.4965 18.8795C22.1304 18.5273 21.6899 17.9741 21.3433 17.4623C21.1686 17.2045 21.0098 16.9453 20.8923 16.7158C20.8336 16.6012 20.7813 16.4864 20.7426 16.3776C20.707 16.2775 20.6689 16.1451 20.6689 16.0077C20.6689 15.4833 20.9829 15.1429 21.3226 14.9312C21.6253 14.7425 22.0089 14.6168 22.3185 14.5154L22.351 14.5048C22.7238 14.3824 23.0083 14.2853 23.208 14.1562C23.377 14.047 23.4229 13.9578 23.4229 13.8331C23.4229 13.7719 23.3838 13.6649 23.2487 13.5556C23.1153 13.4477 22.9472 13.3886 22.8095 13.3886C22.6581 13.3886 22.5552 13.4322 22.3593 13.5261L22.339 13.5359C22.1635 13.6203 21.8891 13.7523 21.5283 13.7523C21.2785 13.7523 20.9988 13.6816 20.7932 13.4638C20.5901 13.2486 20.5424 12.9775 20.5591 12.745C20.6094 12.0447 20.6689 11.0682 20.6689 10.3652C20.6689 9.60503 20.3801 8.32919 19.5281 7.25559C18.6959 6.20682 17.3046 5.32087 15.0113 5.32087C12.7175 5.32087 11.3193 6.20708 10.4806 7.25693Z" fill="black"/>
<path fill-rule="evenodd" clip-rule="evenodd" d="M10.4817 7.25637C9.62336 8.33075 9.32936 9.60643 9.32936 10.3646C9.32936 11.0675 9.38893 12.0441 9.43918 12.7444C9.45579 12.9769 9.40811 13.248 9.20507 13.4633C8.99946 13.6811 8.71982 13.7518 8.46995 13.7518C8.10919 13.7518 7.83481 13.6198 7.65928 13.5354L7.6389 13.5255C7.44306 13.4316 7.34011 13.3879 7.18874 13.3879C7.05104 13.3879 6.88291 13.4472 6.7496 13.555C6.61446 13.6644 6.57529 13.7714 6.57529 13.8326C6.57529 13.9573 6.62129 14.0463 6.79032 14.1557C6.98995 14.2848 7.2744 14.3819 7.6473 14.5041L7.67976 14.5149C7.98943 14.6163 8.37299 14.7419 8.67568 14.9306C9.01543 15.1424 9.32936 15.4828 9.32936 16.0071C9.32936 16.1446 9.29132 16.2769 9.25564 16.3771C9.21696 16.4859 9.16457 16.6007 9.10596 16.7153C8.98854 16.9448 8.82964 17.2039 8.65489 17.4618C8.3084 17.9734 7.86792 18.5267 7.5018 18.879C7.13167 19.235 6.57506 19.6352 6.01207 19.9474C5.72854 20.1047 5.43254 20.2457 5.1471 20.3487C4.8916 20.4409 4.61623 20.5131 4.35206 20.5244C4.34548 20.5272 4.3382 20.5305 4.33059 20.5344C4.3184 20.5405 4.30701 20.5471 4.29708 20.5538L4.29199 20.5573C4.29299 20.5645 4.29412 20.5697 4.29508 20.5735C4.29719 20.5817 4.2997 20.5876 4.30308 20.5937C4.31343 20.6125 4.32977 20.6334 4.39585 20.7042L4.41318 20.7227C4.53221 20.8508 4.82555 21.0169 5.29053 21.1656C5.73339 21.3072 6.25706 21.4094 6.75181 21.4563C6.99935 21.4798 7.14204 21.6345 7.20242 21.7178C7.26458 21.8036 7.30012 21.8942 7.3209 21.9543C7.36109 22.0707 7.39144 22.2139 7.41539 22.327L7.41903 22.3442C7.45172 22.4983 7.48031 22.63 7.5176 22.7401C7.53078 22.779 7.54295 22.8087 7.55342 22.8304C7.57702 22.8331 7.61322 22.8357 7.66565 22.8355C7.89315 22.8346 8.12091 22.8006 8.34632 22.7735C8.70696 22.73 9.15321 22.6763 9.62571 22.6763C10.7216 22.6763 11.4447 23.1704 12.1431 23.6476L12.1824 23.6744C12.4409 23.851 12.7 24.0276 12.9913 24.1998C13.8122 24.685 14.4369 24.6814 14.8932 24.6789C14.9253 24.6786 14.9566 24.6785 14.987 24.6785C15.0172 24.6785 15.0483 24.6786 15.0804 24.6789C15.5417 24.6813 16.1873 24.6849 17.0081 24.1998C17.2994 24.0276 17.5585 23.851 17.8169 23.6744L17.8561 23.6476C18.5547 23.1704 19.2778 22.6763 20.3736 22.6763C20.8461 22.6763 21.2924 22.73 21.653 22.7735L21.6639 22.7748C21.9555 22.81 22.1689 22.8348 22.3337 22.8355C22.3861 22.8357 22.4223 22.8331 22.4459 22.8304C22.4564 22.8087 22.4685 22.779 22.4817 22.7401C22.519 22.63 22.5476 22.4983 22.5802 22.3442L22.5839 22.327C22.6079 22.2139 22.6382 22.0707 22.6784 21.9543C22.6992 21.8941 22.7347 21.8036 22.7969 21.7178C22.8573 21.6344 22.9999 21.4798 23.2475 21.4563C23.7423 21.4094 24.2659 21.3072 24.7087 21.1656C25.1737 21.0169 25.4671 20.8509 25.5861 20.7227L25.6035 20.7042C25.6695 20.6334 25.6859 20.6125 25.6963 20.5937C25.6996 20.5876 25.7022 20.5817 25.7042 20.5735C25.7052 20.5697 25.7064 20.5645 25.7073 20.5573L25.7023 20.5538C25.6923 20.5471 25.681 20.5405 25.6688 20.5344C25.6611 20.5305 25.6539 20.5272 25.6472 20.5244C25.3831 20.5131 25.1077 20.4409 24.8522 20.3487C24.5668 20.2457 24.2707 20.1047 23.9872 19.9474C23.4242 19.6352 22.8676 19.235 22.4975 18.879C22.1314 18.5267 21.691 17.9734 21.3444 17.4618C21.1697 17.2039 21.0108 16.9448 20.8933 16.7153C20.8347 16.6007 20.7824 16.4859 20.7436 16.3771C20.708 16.2769 20.67 16.1446 20.67 16.0071C20.67 15.4828 20.9839 15.1424 21.3237 14.9306C21.6264 14.7419 22.0099 14.6163 22.3196 14.5149L22.352 14.5041C22.7249 14.3819 23.0094 14.2848 23.209 14.1557C23.378 14.0463 23.424 13.9573 23.424 13.8326C23.424 13.7714 23.3849 13.6644 23.2497 13.555C23.1164 13.4472 22.9483 13.3879 22.8106 13.3879C22.6592 13.3879 22.5562 13.4316 22.3604 13.5255L22.34 13.5354C22.1645 13.6198 21.8901 13.7518 21.5294 13.7518C21.2795 13.7518 20.9999 13.6811 20.7943 13.4633C20.5911 13.248 20.5435 12.9769 20.5602 12.7444C20.6104 12.0441 20.67 11.0675 20.67 10.3646C20.67 9.60451 20.3811 8.32865 19.5291 7.25504C18.697 6.20627 17.3057 5.32031 15.0122 5.32031C12.7185 5.32031 11.3204 6.20653 10.4817 7.25637Z" fill="white"/>
</svg>
