<svg width="30" height="30" viewBox="0 0 30 30" fill="none" xmlns="http://www.w3.org/2000/svg">
<path fill-rule="evenodd" clip-rule="evenodd" d="M3 0H27C28.657 0 30 1.33244 30 2.97633V26.787C30 28.4309 28.657 29.7633 27 29.7633H3C1.34304 29.7633 0 28.4309 0 26.787V2.97633C0 1.33244 1.34304 0 3 0Z" fill="#010101"/>
<path fill-rule="evenodd" clip-rule="evenodd" d="M18.8369 27.3825C19.7497 27.3825 20.4898 26.6543 20.4898 25.756C20.4898 24.8578 19.7497 24.1294 18.8369 24.1294H18.5879C19.5007 24.1294 20.2408 24.8578 20.2408 25.756C20.2408 26.6543 19.5007 27.3825 18.5879 27.3825H18.8369Z" fill="#EE1D51"/>
<path fill-rule="evenodd" clip-rule="evenodd" d="M18.5651 24.1294H18.3161C17.4032 24.1294 16.6631 24.8578 16.6631 25.756C16.6631 26.6543 17.4032 27.3825 18.3161 27.3825H18.5651C17.6521 27.3825 16.9121 26.6543 16.9121 25.756C16.9121 24.8578 17.6521 24.1294 18.5651 24.1294Z" fill="#66C8CF"/>
<path d="M18.5763 26.5466C19.0203 26.5466 19.3802 26.1925 19.3802 25.7557C19.3802 25.3189 19.0203 24.9648 18.5763 24.9648C18.1324 24.9648 17.7725 25.3189 17.7725 25.7557C17.7725 26.1925 18.1324 26.5466 18.5763 26.5466Z" fill="#010101"/>
<path fill-rule="evenodd" clip-rule="evenodd" d="M5.99902 23.3936V24.218H6.97246V27.3596H7.94626V24.2403H8.73862L9.0103 23.3936H5.99902ZM13.9688 23.3936V24.218H14.9423V27.3596H15.9161V24.2403H16.7084L16.9801 23.3936H13.9688ZM9.19162 23.8614C9.19162 23.6031 9.40414 23.3936 9.6667 23.3936C9.9295 23.3936 10.1423 23.6031 10.1423 23.8614C10.1423 24.1198 9.92962 24.3293 9.6667 24.3293C9.40414 24.3292 9.19162 24.1198 9.19162 23.8614ZM9.19162 24.6636H10.1423V27.3596H9.19162V24.6636ZM10.5499 23.3936V27.3596H11.5009V26.3348L11.7953 26.0671L12.7235 27.3818H13.7423L12.4063 25.4657L13.6063 24.3069H12.4517L11.5009 25.2427V23.3936H10.5499ZM20.8063 23.3936V27.3596H21.7574V26.3348L22.0517 26.0671L22.9801 27.3818H23.999L22.6631 25.4657L23.8631 24.3069H22.7084L21.7574 25.2427V23.3936H20.8063Z" fill="white"/>
<path fill-rule="evenodd" clip-rule="evenodd" d="M19.3392 9.6652C20.6525 10.5961 22.2615 11.1438 23.9991 11.1438V7.82809C23.6702 7.82822 23.3422 7.79418 23.0205 7.72654V10.3365C21.283 10.3365 19.6743 9.78878 18.3606 8.8579V15.6243C18.3606 19.0092 15.5934 21.753 12.18 21.753C10.9065 21.753 9.72266 21.3712 8.73926 20.7164C9.86162 21.8543 11.4268 22.5603 13.1584 22.5603C16.572 22.5603 19.3393 19.8165 19.3393 16.4315L19.3392 9.6652ZM20.5464 6.32004C19.8753 5.59298 19.4346 4.6533 19.3392 3.61444V3.18799H18.4119C18.6453 4.50829 19.4415 5.63632 20.5464 6.32004ZM10.8982 18.1191C10.5232 17.6315 10.3206 17.0351 10.3215 16.4218C10.3215 14.8737 11.5872 13.6185 13.1488 13.6185C13.4398 13.6183 13.729 13.6626 14.0064 13.7498V10.36C13.6823 10.316 13.3552 10.2973 13.0282 10.3042V12.9426C12.7507 12.8554 12.4613 12.8111 12.1702 12.8113C10.6086 12.8113 9.34298 14.0665 9.34298 15.6148C9.34298 16.7095 9.97562 17.6574 10.8982 18.1191Z" fill="#EE1D52"/>
<path fill-rule="evenodd" clip-rule="evenodd" d="M18.3625 8.8579C19.6761 9.78878 21.2848 10.3365 23.0223 10.3365V7.72654C22.0525 7.52176 21.1939 7.01912 20.5483 6.32004C19.4433 5.63632 18.6471 4.50829 18.4137 3.18799H15.9778V16.4314C15.9723 17.9752 14.7087 19.2253 13.1505 19.2253C12.2323 19.2253 11.4165 18.7913 10.8999 18.1191C9.97733 17.6574 9.34469 16.7095 9.34469 15.6148C9.34469 14.0665 10.6103 12.8113 12.1719 12.8113C12.4711 12.8113 12.7594 12.8575 13.0299 12.9426V10.3042C9.67649 10.3729 6.97949 13.0899 6.97949 16.4315C6.97949 18.0995 7.65113 19.6117 8.74109 20.7166C9.72449 21.3713 10.9083 21.7532 12.1819 21.7532C15.5953 21.7532 18.3625 19.0092 18.3625 15.6244V8.8579Z" fill="white"/>
<path fill-rule="evenodd" clip-rule="evenodd" d="M23.0203 7.72708V7.02133C22.1457 7.02264 21.2883 6.77976 20.5463 6.32046C21.2031 7.03357 22.0681 7.52533 23.0203 7.72708ZM18.4117 3.18853C18.3894 3.06236 18.3723 2.93535 18.3605 2.8078V2.38135H14.9971V15.6248C14.9917 17.1686 13.7282 18.4187 12.1699 18.4187C11.7123 18.4187 11.2805 18.311 10.8979 18.1196C11.4145 18.7919 12.2303 19.2258 13.1485 19.2258C14.7066 19.2258 15.9703 17.9758 15.9758 16.4319V3.18853H18.4117ZM13.028 10.3047V9.55335C12.747 9.51523 12.4636 9.49618 12.18 9.49633C8.76622 9.49633 5.99902 12.2403 5.99902 15.6248C5.99902 17.7468 7.08658 19.6169 8.73922 20.717C7.64926 19.6122 6.97762 18.0999 6.97762 16.4319C6.97762 13.0904 9.6745 10.3734 13.028 10.3047Z" fill="#69C9D0"/>
<path fill-rule="evenodd" clip-rule="evenodd" d="M18.5866 27.3825C19.4994 27.3825 20.2396 26.6543 20.2396 25.756C20.2396 24.8578 19.4994 24.1294 18.5866 24.1294H18.564C17.6512 24.1294 16.9111 24.8578 16.9111 25.756C16.9111 26.6543 17.6512 27.3825 18.564 27.3825H18.5866ZM17.7715 25.756C17.7715 25.3191 18.1315 24.9651 18.5755 24.9651C19.0192 24.9651 19.3792 25.3191 19.3792 25.756C19.3792 26.1929 19.0192 26.5471 18.5755 26.5471C18.1315 26.547 17.7715 26.1929 17.7715 25.756Z" fill="white"/>
</svg>
