<svg width="143" height="29" viewBox="0 0 143 29" fill="none" xmlns="http://www.w3.org/2000/svg">
<path d="M2.88 29V0.88H8.32V29H2.88ZM6.88 17.48V12.64H21.04V17.48H6.88ZM6.88 5.68V0.88H21.72V5.68H6.88ZM25.445 29V9.68H30.725V29H25.445ZM28.085 6.56C27.2317 6.56 26.525 6.28 25.965 5.72C25.405 5.13333 25.125 4.41333 25.125 3.56C25.125 2.73333 25.405 2.02667 25.965 1.44C26.525 0.853333 27.2317 0.559999 28.085 0.559999C28.965 0.559999 29.6717 0.853333 30.205 1.44C30.765 2.02667 31.045 2.73333 31.045 3.56C31.045 4.41333 30.765 5.13333 30.205 5.72C29.6717 6.28 28.965 6.56 28.085 6.56ZM48.3669 29V17.92C48.3669 16.7733 48.0069 15.84 47.2869 15.12C46.5669 14.4 45.6335 14.04 44.4869 14.04C43.7402 14.04 43.0735 14.2 42.4869 14.52C41.9002 14.84 41.4335 15.2933 41.0869 15.88C40.7669 16.4667 40.6069 17.1467 40.6069 17.92L38.5669 16.88C38.5669 15.36 38.8869 14.04 39.5269 12.92C40.1935 11.7733 41.1002 10.88 42.2469 10.24C43.4202 9.6 44.7402 9.28 46.2069 9.28C47.6202 9.28 48.8869 9.64 50.0069 10.36C51.1269 11.0533 52.0069 11.9733 52.6469 13.12C53.2869 14.24 53.6069 15.4533 53.6069 16.76V29H48.3669ZM35.3669 29V9.68H40.6069V29H35.3669Z" fill="#24365D"/>
<path d="M58.3878 29V0.88H63.8278V29H58.3878ZM62.3878 17.48V12.64H76.5478V17.48H62.3878ZM62.3878 5.68V0.88H77.2278V5.68H62.3878ZM80.9528 29V0.079998H86.1928V29H80.9528ZM119.433 29L112.193 9.68H117.473L122.193 23.72L120.593 23.76L125.433 9.68H129.233L134.073 23.76L132.473 23.72L137.193 9.68H142.473L135.273 29H131.473L126.593 15.64H128.073L123.193 29H119.433Z" fill="#24365E"/>
<path fill-rule="evenodd" clip-rule="evenodd" d="M100.515 28.4015C106.323 28.4015 111.031 23.8344 111.031 18.2007C111.031 12.567 106.323 8 100.515 8C94.7079 8 90 12.567 90 18.2007C90 23.8344 94.7079 28.4015 100.515 28.4015ZM103.796 12.7519C103.956 12.2017 103.405 11.8763 102.902 12.2238L95.885 17.0733C95.3398 17.4501 95.4256 18.2007 96.0138 18.2007H97.8617V18.1869H101.463L98.5286 19.1913L97.235 23.6496C97.0753 24.1998 97.6257 24.5251 98.1284 24.1777L105.146 19.3282C105.691 18.9514 105.605 18.2007 105.017 18.2007H102.215L103.796 12.7519Z" fill="url(#paint0_linear_1023_659)"/>
<defs>
<linearGradient id="paint0_linear_1023_659" x1="106.845" y1="8" x2="94.1854" y2="28.4015" gradientUnits="userSpaceOnUse">
<stop offset="0.0735241" stop-color="#8C47FE"/>
<stop offset="1" stop-color="#19C8FF"/>
</linearGradient>
</defs>
</svg>
