<svg width="647" height="391" viewBox="0 0 647 391" fill="none" xmlns="http://www.w3.org/2000/svg">
<circle cx="333" cy="165" r="164.5" stroke="#5883FF" stroke-opacity="0.3"/>
<circle cx="333" cy="165" r="103.5" stroke="#5883FF" stroke-opacity="0.3"/>
<ellipse cx="333" cy="164.5" rx="33" ry="33.5" fill="url(#paint0_linear_808_40507)"/>
<circle cx="338.5" cy="329.5" r="28.5" fill="url(#paint1_linear_808_40507)" fill-opacity="0.2"/>
<ellipse cx="333.5" cy="165" rx="59.5" ry="59" fill="url(#paint2_linear_808_40507)" fill-opacity="0.4"/>
<ellipse cx="333" cy="164.5" rx="33" ry="33.5" fill="white"/>
<circle cx="338.5" cy="329.5" r="17.5" fill="url(#paint3_linear_808_40507)"/>
<circle cx="495.5" cy="144.5" r="28.5" fill="url(#paint4_linear_808_40507)" fill-opacity="0.2"/>
<circle cx="495.5" cy="144.5" r="17.5" fill="url(#paint5_linear_808_40507)"/>
<circle cx="175.5" cy="129.5" r="28.5" fill="url(#paint6_linear_808_40507)" fill-opacity="0.2"/>
<circle cx="175.5" cy="129.5" r="17.5" fill="url(#paint7_linear_808_40507)"/>
<circle cx="330.5" cy="66.5" r="28.5" fill="url(#paint8_linear_808_40507)" fill-opacity="0.2"/>
<circle cx="329.5" cy="65.5" r="17.5" fill="url(#paint9_linear_808_40507)"/>
<path fill-rule="evenodd" clip-rule="evenodd" d="M333.186 183.629C343.719 183.629 352.258 175.09 352.258 164.556C352.258 154.023 343.719 145.484 333.186 145.484C322.652 145.484 314.113 154.023 314.113 164.556C314.113 175.09 322.652 183.629 333.186 183.629ZM339.136 154.369C339.425 153.34 338.427 152.732 337.515 153.381L324.787 162.449C323.799 163.153 323.954 164.556 325.021 164.556H328.373V164.531H334.905L329.582 166.408L327.236 174.744C326.946 175.773 327.945 176.381 328.856 175.732L341.584 166.664C342.573 165.96 342.418 164.556 341.351 164.556H336.268L339.136 154.369Z" fill="url(#paint10_linear_808_40507)"/>
<path d="M255.665 25V23.852H258.605C259.165 23.852 259.603 23.6887 259.921 23.362C260.238 23.026 260.397 22.6247 260.397 22.158C260.397 21.8407 260.327 21.556 260.187 21.304C260.047 21.0427 259.841 20.8373 259.571 20.688C259.309 20.5387 259.001 20.464 258.647 20.464H255.665V19.316H258.451C258.917 19.316 259.286 19.1947 259.557 18.952C259.837 18.7 259.977 18.3407 259.977 17.874C259.977 17.4073 259.832 17.0527 259.543 16.81C259.253 16.558 258.871 16.432 258.395 16.432H255.665V15.284H258.423C259.057 15.284 259.585 15.4007 260.005 15.634C260.434 15.858 260.756 16.1567 260.971 16.53C261.195 16.9033 261.307 17.314 261.307 17.762C261.307 18.2847 261.162 18.742 260.873 19.134C260.593 19.526 260.177 19.834 259.627 20.058L259.739 19.638C260.364 19.862 260.849 20.2027 261.195 20.66C261.549 21.108 261.727 21.64 261.727 22.256C261.727 22.7693 261.601 23.2313 261.349 23.642C261.097 24.0527 260.733 24.384 260.257 24.636C259.79 24.8787 259.216 25 258.535 25H255.665ZM254.783 25V15.284H256.099V25H254.783ZM266.109 25.14C265.503 25.14 264.952 24.9907 264.457 24.692C263.963 24.384 263.571 23.9687 263.281 23.446C263.001 22.9233 262.861 22.3353 262.861 21.682C262.861 21.0287 263.001 20.4407 263.281 19.918C263.571 19.3953 263.958 18.98 264.443 18.672C264.938 18.364 265.493 18.21 266.109 18.21C266.613 18.21 267.061 18.3173 267.453 18.532C267.855 18.7373 268.177 19.0267 268.419 19.4C268.662 19.764 268.797 20.1887 268.825 20.674V22.676C268.797 23.152 268.662 23.5767 268.419 23.95C268.186 24.3233 267.869 24.6173 267.467 24.832C267.075 25.0373 266.623 25.14 266.109 25.14ZM266.319 23.95C266.945 23.95 267.449 23.74 267.831 23.32C268.214 22.8907 268.405 22.3447 268.405 21.682C268.405 21.2247 268.317 20.828 268.139 20.492C267.971 20.1467 267.729 19.8807 267.411 19.694C267.094 19.498 266.725 19.4 266.305 19.4C265.885 19.4 265.512 19.498 265.185 19.694C264.868 19.89 264.616 20.1607 264.429 20.506C264.252 20.842 264.163 21.2293 264.163 21.668C264.163 22.116 264.252 22.5127 264.429 22.858C264.616 23.194 264.873 23.46 265.199 23.656C265.526 23.852 265.899 23.95 266.319 23.95ZM268.321 25V23.208L268.559 21.584L268.321 19.974V18.35H269.595V25H268.321ZM276.134 25V21.122C276.134 20.618 275.975 20.2027 275.658 19.876C275.341 19.5493 274.93 19.386 274.426 19.386C274.09 19.386 273.791 19.4607 273.53 19.61C273.269 19.7593 273.063 19.9647 272.914 20.226C272.765 20.4873 272.69 20.786 272.69 21.122L272.172 20.828C272.172 20.324 272.284 19.876 272.508 19.484C272.732 19.092 273.045 18.784 273.446 18.56C273.847 18.3267 274.3 18.21 274.804 18.21C275.308 18.21 275.751 18.336 276.134 18.588C276.526 18.84 276.834 19.1713 277.058 19.582C277.282 19.9833 277.394 20.4127 277.394 20.87V25H276.134ZM271.43 25V18.35H272.69V25H271.43ZM283.356 25L280.248 21.598L283.328 18.35H284.854L281.424 21.934L281.48 21.206L284.98 25H283.356ZM279.1 25V15.004H280.36V25H279.1ZM287.79 25.14C287.417 25.14 287.062 25.0933 286.726 25C286.399 24.8973 286.096 24.7573 285.816 24.58C285.536 24.3933 285.293 24.174 285.088 23.922L285.9 23.11C286.143 23.4087 286.423 23.6327 286.74 23.782C287.057 23.922 287.412 23.992 287.804 23.992C288.196 23.992 288.499 23.9267 288.714 23.796C288.929 23.656 289.036 23.4647 289.036 23.222C289.036 22.9793 288.947 22.7927 288.77 22.662C288.602 22.522 288.383 22.41 288.112 22.326C287.841 22.2327 287.552 22.144 287.244 22.06C286.945 21.9667 286.661 21.85 286.39 21.71C286.119 21.57 285.895 21.3787 285.718 21.136C285.55 20.8933 285.466 20.5713 285.466 20.17C285.466 19.7687 285.564 19.4233 285.76 19.134C285.956 18.8353 286.227 18.6067 286.572 18.448C286.927 18.2893 287.351 18.21 287.846 18.21C288.369 18.21 288.831 18.3033 289.232 18.49C289.643 18.6673 289.979 18.938 290.24 19.302L289.428 20.114C289.241 19.8713 289.008 19.6847 288.728 19.554C288.457 19.4233 288.149 19.358 287.804 19.358C287.44 19.358 287.16 19.4233 286.964 19.554C286.777 19.6753 286.684 19.848 286.684 20.072C286.684 20.296 286.768 20.4687 286.936 20.59C287.104 20.7113 287.323 20.814 287.594 20.898C287.874 20.982 288.163 21.0707 288.462 21.164C288.761 21.248 289.045 21.3647 289.316 21.514C289.587 21.6633 289.806 21.864 289.974 22.116C290.151 22.368 290.24 22.6993 290.24 23.11C290.24 23.7353 290.016 24.23 289.568 24.594C289.129 24.958 288.537 25.14 287.79 25.14ZM301.157 25L296.509 20.016C296.145 19.624 295.874 19.2507 295.697 18.896C295.519 18.5413 295.431 18.1493 295.431 17.72C295.431 17.2253 295.547 16.7867 295.781 16.404C296.014 16.012 296.336 15.704 296.747 15.48C297.157 15.2467 297.629 15.13 298.161 15.13C298.553 15.13 298.907 15.1953 299.225 15.326C299.551 15.4473 299.836 15.6107 300.079 15.816C300.331 16.0213 300.541 16.2547 300.709 16.516L299.799 17.342C299.584 17.0433 299.346 16.8053 299.085 16.628C298.833 16.4413 298.525 16.348 298.161 16.348C297.741 16.348 297.391 16.474 297.111 16.726C296.831 16.978 296.691 17.3047 296.691 17.706C296.691 18.042 296.761 18.3267 296.901 18.56C297.041 18.7933 297.251 19.064 297.531 19.372L302.697 25H301.157ZM297.671 25.14C297.027 25.14 296.462 25.014 295.977 24.762C295.491 24.51 295.113 24.1647 294.843 23.726C294.581 23.278 294.451 22.7693 294.451 22.2C294.451 21.612 294.609 21.08 294.927 20.604C295.244 20.128 295.706 19.75 296.313 19.47L296.915 20.254C296.541 20.4407 296.247 20.6973 296.033 21.024C295.818 21.3413 295.711 21.724 295.711 22.172C295.711 22.536 295.795 22.8487 295.963 23.11C296.131 23.3713 296.364 23.5767 296.663 23.726C296.971 23.866 297.321 23.936 297.713 23.936C298.207 23.936 298.627 23.8333 298.973 23.628C299.318 23.4227 299.579 23.1613 299.757 22.844L300.583 23.81C300.396 24.062 300.149 24.2907 299.841 24.496C299.542 24.692 299.206 24.8507 298.833 24.972C298.469 25.084 298.081 25.14 297.671 25.14ZM307.276 21.22V20.072H309.922C310.286 20.072 310.608 19.9973 310.888 19.848C311.177 19.6987 311.401 19.4887 311.56 19.218C311.728 18.9473 311.812 18.6253 311.812 18.252C311.812 17.8787 311.728 17.5567 311.56 17.286C311.401 17.0153 311.177 16.8053 310.888 16.656C310.608 16.5067 310.286 16.432 309.922 16.432H307.276V15.284H310.006C310.603 15.284 311.135 15.4053 311.602 15.648C312.078 15.8907 312.451 16.236 312.722 16.684C313.002 17.1227 313.142 17.6453 313.142 18.252C313.142 18.8493 313.002 19.372 312.722 19.82C312.451 20.2587 312.078 20.604 311.602 20.856C311.135 21.0987 310.603 21.22 310.006 21.22H307.276ZM306.394 25V15.284H307.71V25H306.394ZM317.106 25.14C316.499 25.14 315.948 24.9907 315.454 24.692C314.959 24.384 314.567 23.9687 314.278 23.446C313.998 22.9233 313.858 22.3353 313.858 21.682C313.858 21.0287 313.998 20.4407 314.278 19.918C314.567 19.3953 314.954 18.98 315.44 18.672C315.934 18.364 316.49 18.21 317.106 18.21C317.61 18.21 318.058 18.3173 318.45 18.532C318.851 18.7373 319.173 19.0267 319.416 19.4C319.658 19.764 319.794 20.1887 319.822 20.674V22.676C319.794 23.152 319.658 23.5767 319.416 23.95C319.182 24.3233 318.865 24.6173 318.464 24.832C318.072 25.0373 317.619 25.14 317.106 25.14ZM317.316 23.95C317.941 23.95 318.445 23.74 318.828 23.32C319.21 22.8907 319.402 22.3447 319.402 21.682C319.402 21.2247 319.313 20.828 319.136 20.492C318.968 20.1467 318.725 19.8807 318.408 19.694C318.09 19.498 317.722 19.4 317.302 19.4C316.882 19.4 316.508 19.498 316.182 19.694C315.864 19.89 315.612 20.1607 315.426 20.506C315.248 20.842 315.16 21.2293 315.16 21.668C315.16 22.116 315.248 22.5127 315.426 22.858C315.612 23.194 315.869 23.46 316.196 23.656C316.522 23.852 316.896 23.95 317.316 23.95ZM319.318 25V23.208L319.556 21.584L319.318 19.974V18.35H320.592V25H319.318ZM324.61 25.056L321.726 18.35H323.126L325.268 23.6H324.82L327.074 18.35H328.474L325.366 25.056H324.61ZM322.706 27.786L324.666 23.768L325.366 25.056L324.106 27.786H322.706ZM329.453 25V18.35H330.713V25H329.453ZM333.947 25V20.982C333.947 20.4873 333.793 20.1 333.485 19.82C333.187 19.5307 332.809 19.386 332.351 19.386C332.043 19.386 331.768 19.4513 331.525 19.582C331.283 19.7127 331.087 19.8947 330.937 20.128C330.788 20.3613 330.713 20.6413 330.713 20.968L330.195 20.716C330.195 20.212 330.303 19.7733 330.517 19.4C330.741 19.0267 331.045 18.7373 331.427 18.532C331.81 18.3173 332.239 18.21 332.715 18.21C333.182 18.21 333.602 18.3127 333.975 18.518C334.358 18.7233 334.657 19.0127 334.871 19.386C335.095 19.7593 335.207 20.2027 335.207 20.716V25H333.947ZM338.441 25V20.982C338.441 20.4873 338.287 20.1 337.979 19.82C337.681 19.5307 337.307 19.386 336.859 19.386C336.551 19.386 336.271 19.4513 336.019 19.582C335.777 19.7127 335.581 19.8947 335.431 20.128C335.282 20.3613 335.207 20.6413 335.207 20.968L334.493 20.716C334.521 20.2027 334.657 19.764 334.899 19.4C335.151 19.0267 335.473 18.7373 335.865 18.532C336.257 18.3173 336.687 18.21 337.153 18.21C337.639 18.21 338.073 18.3127 338.455 18.518C338.838 18.7233 339.141 19.0127 339.365 19.386C339.599 19.7593 339.715 20.2073 339.715 20.73V25H338.441ZM344.51 25.14C343.847 25.14 343.25 24.9907 342.718 24.692C342.186 24.384 341.766 23.9687 341.458 23.446C341.15 22.9233 340.996 22.3307 340.996 21.668C340.996 21.0147 341.145 20.4267 341.444 19.904C341.752 19.3813 342.163 18.9707 342.676 18.672C343.199 18.364 343.782 18.21 344.426 18.21C345.042 18.21 345.583 18.35 346.05 18.63C346.526 18.91 346.895 19.2973 347.156 19.792C347.427 20.2867 347.562 20.8467 347.562 21.472C347.562 21.5653 347.557 21.668 347.548 21.78C347.539 21.8827 347.52 22.004 347.492 22.144H341.878V21.094H346.82L346.358 21.5C346.358 21.052 346.279 20.674 346.12 20.366C345.961 20.0487 345.737 19.806 345.448 19.638C345.159 19.4607 344.809 19.372 344.398 19.372C343.969 19.372 343.591 19.4653 343.264 19.652C342.937 19.8387 342.685 20.1 342.508 20.436C342.331 20.772 342.242 21.1687 342.242 21.626C342.242 22.0927 342.335 22.5033 342.522 22.858C342.709 23.2033 342.975 23.474 343.32 23.67C343.665 23.8567 344.062 23.95 344.51 23.95C344.883 23.95 345.224 23.8847 345.532 23.754C345.849 23.6233 346.12 23.4273 346.344 23.166L347.156 23.992C346.839 24.3653 346.447 24.65 345.98 24.846C345.523 25.042 345.033 25.14 344.51 25.14ZM353.64 25V21.122C353.64 20.618 353.481 20.2027 353.164 19.876C352.846 19.5493 352.436 19.386 351.932 19.386C351.596 19.386 351.297 19.4607 351.036 19.61C350.774 19.7593 350.569 19.9647 350.42 20.226C350.27 20.4873 350.196 20.786 350.196 21.122L349.678 20.828C349.678 20.324 349.79 19.876 350.014 19.484C350.238 19.092 350.55 18.784 350.952 18.56C351.353 18.3267 351.806 18.21 352.31 18.21C352.814 18.21 353.257 18.336 353.64 18.588C354.032 18.84 354.34 19.1713 354.564 19.582C354.788 19.9833 354.9 20.4127 354.9 20.87V25H353.64ZM348.936 25V18.35H350.196V25H348.936ZM357.546 25V15.564H358.806V25H357.546ZM355.908 19.498V18.35H360.444V19.498H355.908ZM369.21 25.14C368.529 25.14 367.889 25.014 367.292 24.762C366.704 24.5007 366.186 24.1413 365.738 23.684C365.299 23.2267 364.954 22.6947 364.702 22.088C364.45 21.4813 364.324 20.828 364.324 20.128C364.324 19.428 364.45 18.7793 364.702 18.182C364.954 17.5753 365.304 17.0433 365.752 16.586C366.2 16.1287 366.723 15.774 367.32 15.522C367.927 15.27 368.585 15.144 369.294 15.144C370.069 15.144 370.783 15.2933 371.436 15.592C372.089 15.8907 372.635 16.32 373.074 16.88L372.164 17.79C371.856 17.342 371.45 17.0013 370.946 16.768C370.442 16.5253 369.891 16.404 369.294 16.404C368.585 16.404 367.955 16.5627 367.404 16.88C366.863 17.1973 366.438 17.636 366.13 18.196C365.831 18.756 365.682 19.4 365.682 20.128C365.682 20.8653 365.836 21.514 366.144 22.074C366.452 22.634 366.867 23.0727 367.39 23.39C367.913 23.7073 368.51 23.866 369.182 23.866C369.863 23.866 370.451 23.7353 370.946 23.474C371.45 23.2127 371.837 22.83 372.108 22.326C372.379 21.8127 372.514 21.1873 372.514 20.45L373.312 21.024H369.112V19.82H373.872V20.016C373.872 21.1453 373.671 22.0927 373.27 22.858C372.878 23.614 372.327 24.1833 371.618 24.566C370.918 24.9487 370.115 25.14 369.21 25.14ZM378.246 25.14C377.639 25.14 377.089 24.9907 376.594 24.692C376.099 24.384 375.707 23.9687 375.418 23.446C375.138 22.9233 374.998 22.3353 374.998 21.682C374.998 21.0287 375.138 20.4407 375.418 19.918C375.707 19.3953 376.095 18.98 376.58 18.672C377.075 18.364 377.63 18.21 378.246 18.21C378.75 18.21 379.198 18.3173 379.59 18.532C379.991 18.7373 380.313 19.0267 380.556 19.4C380.799 19.764 380.934 20.1887 380.962 20.674V22.676C380.934 23.152 380.799 23.5767 380.556 23.95C380.323 24.3233 380.005 24.6173 379.604 24.832C379.212 25.0373 378.759 25.14 378.246 25.14ZM378.456 23.95C379.081 23.95 379.585 23.74 379.968 23.32C380.351 22.8907 380.542 22.3447 380.542 21.682C380.542 21.2247 380.453 20.828 380.276 20.492C380.108 20.1467 379.865 19.8807 379.548 19.694C379.231 19.498 378.862 19.4 378.442 19.4C378.022 19.4 377.649 19.498 377.322 19.694C377.005 19.89 376.753 20.1607 376.566 20.506C376.389 20.842 376.3 21.2293 376.3 21.668C376.3 22.116 376.389 22.5127 376.566 22.858C376.753 23.194 377.009 23.46 377.336 23.656C377.663 23.852 378.036 23.95 378.456 23.95ZM380.458 25V23.208L380.696 21.584L380.458 19.974V18.35H381.732V25H380.458ZM384.561 25V15.564H385.821V25H384.561ZM382.923 19.498V18.35H387.459V19.498H382.923ZM391.568 25.14C390.906 25.14 390.308 24.9907 389.776 24.692C389.244 24.384 388.824 23.9687 388.516 23.446C388.208 22.9233 388.054 22.3307 388.054 21.668C388.054 21.0147 388.204 20.4267 388.502 19.904C388.81 19.3813 389.221 18.9707 389.734 18.672C390.257 18.364 390.84 18.21 391.484 18.21C392.1 18.21 392.642 18.35 393.108 18.63C393.584 18.91 393.953 19.2973 394.214 19.792C394.485 20.2867 394.62 20.8467 394.62 21.472C394.62 21.5653 394.616 21.668 394.606 21.78C394.597 21.8827 394.578 22.004 394.55 22.144H388.936V21.094H393.878L393.416 21.5C393.416 21.052 393.337 20.674 393.178 20.366C393.02 20.0487 392.796 19.806 392.506 19.638C392.217 19.4607 391.867 19.372 391.456 19.372C391.027 19.372 390.649 19.4653 390.322 19.652C389.996 19.8387 389.744 20.1 389.566 20.436C389.389 20.772 389.3 21.1687 389.3 21.626C389.3 22.0927 389.394 22.5033 389.58 22.858C389.767 23.2033 390.033 23.474 390.378 23.67C390.724 23.8567 391.12 23.95 391.568 23.95C391.942 23.95 392.282 23.8847 392.59 23.754C392.908 23.6233 393.178 23.4273 393.402 23.166L394.214 23.992C393.897 24.3653 393.505 24.65 393.038 24.846C392.581 25.042 392.091 25.14 391.568 25.14ZM397.816 25L395.184 18.35H396.5L398.404 23.53H397.984L399.874 18.35H400.602L402.492 23.53H402.072L403.976 18.35H405.292L402.674 25H401.932L400.014 19.974H400.476L398.544 25H397.816ZM409.049 25.14C408.442 25.14 407.892 24.9907 407.397 24.692C406.902 24.384 406.51 23.9687 406.221 23.446C405.941 22.9233 405.801 22.3353 405.801 21.682C405.801 21.0287 405.941 20.4407 406.221 19.918C406.51 19.3953 406.898 18.98 407.383 18.672C407.878 18.364 408.433 18.21 409.049 18.21C409.553 18.21 410.001 18.3173 410.393 18.532C410.794 18.7373 411.116 19.0267 411.359 19.4C411.602 19.764 411.737 20.1887 411.765 20.674V22.676C411.737 23.152 411.602 23.5767 411.359 23.95C411.126 24.3233 410.808 24.6173 410.407 24.832C410.015 25.0373 409.562 25.14 409.049 25.14ZM409.259 23.95C409.884 23.95 410.388 23.74 410.771 23.32C411.154 22.8907 411.345 22.3447 411.345 21.682C411.345 21.2247 411.256 20.828 411.079 20.492C410.911 20.1467 410.668 19.8807 410.351 19.694C410.034 19.498 409.665 19.4 409.245 19.4C408.825 19.4 408.452 19.498 408.125 19.694C407.808 19.89 407.556 20.1607 407.369 20.506C407.192 20.842 407.103 21.2293 407.103 21.668C407.103 22.116 407.192 22.5127 407.369 22.858C407.556 23.194 407.812 23.46 408.139 23.656C408.466 23.852 408.839 23.95 409.259 23.95ZM411.261 25V23.208L411.499 21.584L411.261 19.974V18.35H412.535V25H411.261ZM416.553 25.056L413.669 18.35H415.069L417.211 23.6H416.763L419.017 18.35H420.417L417.309 25.056H416.553ZM414.649 27.786L416.609 23.768L417.309 25.056L416.049 27.786H414.649ZM423.429 25.14C423.055 25.14 422.701 25.0933 422.365 25C422.038 24.8973 421.735 24.7573 421.455 24.58C421.175 24.3933 420.932 24.174 420.727 23.922L421.539 23.11C421.781 23.4087 422.061 23.6327 422.379 23.782C422.696 23.922 423.051 23.992 423.443 23.992C423.835 23.992 424.138 23.9267 424.353 23.796C424.567 23.656 424.675 23.4647 424.675 23.222C424.675 22.9793 424.586 22.7927 424.409 22.662C424.241 22.522 424.021 22.41 423.751 22.326C423.48 22.2327 423.191 22.144 422.883 22.06C422.584 21.9667 422.299 21.85 422.029 21.71C421.758 21.57 421.534 21.3787 421.357 21.136C421.189 20.8933 421.105 20.5713 421.105 20.17C421.105 19.7687 421.203 19.4233 421.399 19.134C421.595 18.8353 421.865 18.6067 422.211 18.448C422.565 18.2893 422.99 18.21 423.485 18.21C424.007 18.21 424.469 18.3033 424.871 18.49C425.281 18.6673 425.617 18.938 425.879 19.302L425.067 20.114C424.88 19.8713 424.647 19.6847 424.367 19.554C424.096 19.4233 423.788 19.358 423.443 19.358C423.079 19.358 422.799 19.4233 422.603 19.554C422.416 19.6753 422.323 19.848 422.323 20.072C422.323 20.296 422.407 20.4687 422.575 20.59C422.743 20.7113 422.962 20.814 423.233 20.898C423.513 20.982 423.802 21.0707 424.101 21.164C424.399 21.248 424.684 21.3647 424.955 21.514C425.225 21.6633 425.445 21.864 425.613 22.116C425.79 22.368 425.879 22.6993 425.879 23.11C425.879 23.7353 425.655 24.23 425.207 24.594C424.768 24.958 424.175 25.14 423.429 25.14Z" fill="#24365E"/>
<path d="M539.549 149.14C538.784 149.14 538.131 149 537.589 148.72C537.048 148.44 536.567 148.034 536.147 147.502L537.043 146.606C537.351 147.035 537.706 147.362 538.107 147.586C538.509 147.801 539.003 147.908 539.591 147.908C540.17 147.908 540.632 147.782 540.977 147.53C541.332 147.278 541.509 146.933 541.509 146.494C541.509 146.13 541.425 145.836 541.257 145.612C541.089 145.388 540.861 145.206 540.571 145.066C540.291 144.917 539.983 144.786 539.647 144.674C539.311 144.553 538.975 144.427 538.639 144.296C538.303 144.156 537.995 143.988 537.715 143.792C537.435 143.587 537.207 143.321 537.029 142.994C536.861 142.667 536.777 142.257 536.777 141.762C536.777 141.211 536.908 140.745 537.169 140.362C537.44 139.97 537.804 139.671 538.261 139.466C538.728 139.251 539.251 139.144 539.829 139.144C540.464 139.144 541.033 139.27 541.537 139.522C542.041 139.765 542.452 140.087 542.769 140.488L541.873 141.384C541.584 141.048 541.271 140.796 540.935 140.628C540.609 140.46 540.231 140.376 539.801 140.376C539.279 140.376 538.863 140.493 538.555 140.726C538.247 140.95 538.093 141.267 538.093 141.678C538.093 142.005 538.177 142.271 538.345 142.476C538.523 142.672 538.751 142.84 539.031 142.98C539.311 143.12 539.619 143.251 539.955 143.372C540.301 143.484 540.641 143.61 540.977 143.75C541.313 143.89 541.621 144.067 541.901 144.282C542.181 144.497 542.405 144.777 542.573 145.122C542.751 145.458 542.839 145.883 542.839 146.396C542.839 147.255 542.541 147.927 541.943 148.412C541.355 148.897 540.557 149.14 539.549 149.14ZM545.411 149V139.564H546.671V149H545.411ZM543.773 143.498V142.35H548.309V143.498H543.773ZM552.376 149.14C551.723 149.14 551.135 148.986 550.612 148.678C550.089 148.37 549.674 147.955 549.366 147.432C549.058 146.9 548.904 146.307 548.904 145.654C548.904 145.01 549.058 144.431 549.366 143.918C549.674 143.395 550.089 142.98 550.612 142.672C551.135 142.364 551.723 142.21 552.376 142.21C553.02 142.21 553.603 142.364 554.126 142.672C554.658 142.971 555.078 143.381 555.386 143.904C555.694 144.427 555.848 145.01 555.848 145.654C555.848 146.307 555.694 146.9 555.386 147.432C555.078 147.955 554.658 148.37 554.126 148.678C553.603 148.986 553.02 149.14 552.376 149.14ZM552.376 147.922C552.796 147.922 553.169 147.824 553.496 147.628C553.823 147.432 554.079 147.166 554.266 146.83C554.453 146.485 554.546 146.093 554.546 145.654C554.546 145.225 554.448 144.842 554.252 144.506C554.065 144.17 553.809 143.909 553.482 143.722C553.165 143.526 552.796 143.428 552.376 143.428C551.956 143.428 551.583 143.526 551.256 143.722C550.929 143.909 550.673 144.17 550.486 144.506C550.299 144.842 550.206 145.225 550.206 145.654C550.206 146.093 550.299 146.485 550.486 146.83C550.673 147.166 550.929 147.432 551.256 147.628C551.583 147.824 551.956 147.922 552.376 147.922ZM557.268 149V142.35H558.528V149H557.268ZM558.528 145.206L558.052 144.996C558.052 144.147 558.248 143.47 558.64 142.966C559.032 142.462 559.596 142.21 560.334 142.21C560.67 142.21 560.973 142.271 561.244 142.392C561.514 142.504 561.766 142.695 562 142.966L561.174 143.82C561.034 143.671 560.88 143.563 560.712 143.498C560.544 143.433 560.348 143.4 560.124 143.4C559.657 143.4 559.274 143.549 558.976 143.848C558.677 144.147 558.528 144.599 558.528 145.206ZM565.748 149.14C565.085 149.14 564.488 148.991 563.956 148.692C563.424 148.384 563.004 147.969 562.696 147.446C562.388 146.923 562.234 146.331 562.234 145.668C562.234 145.015 562.383 144.427 562.682 143.904C562.99 143.381 563.401 142.971 563.914 142.672C564.437 142.364 565.02 142.21 565.664 142.21C566.28 142.21 566.821 142.35 567.288 142.63C567.764 142.91 568.133 143.297 568.394 143.792C568.665 144.287 568.8 144.847 568.8 145.472C568.8 145.565 568.795 145.668 568.786 145.78C568.777 145.883 568.758 146.004 568.73 146.144H563.116V145.094H568.058L567.596 145.5C567.596 145.052 567.517 144.674 567.358 144.366C567.199 144.049 566.975 143.806 566.686 143.638C566.397 143.461 566.047 143.372 565.636 143.372C565.207 143.372 564.829 143.465 564.502 143.652C564.175 143.839 563.923 144.1 563.746 144.436C563.569 144.772 563.48 145.169 563.48 145.626C563.48 146.093 563.573 146.503 563.76 146.858C563.947 147.203 564.213 147.474 564.558 147.67C564.903 147.857 565.3 147.95 565.748 147.95C566.121 147.95 566.462 147.885 566.77 147.754C567.087 147.623 567.358 147.427 567.582 147.166L568.394 147.992C568.077 148.365 567.685 148.65 567.218 148.846C566.761 149.042 566.271 149.14 565.748 149.14ZM570.921 149V141.356C570.921 140.861 571.028 140.432 571.243 140.068C571.458 139.695 571.752 139.401 572.125 139.186C572.508 138.971 572.951 138.864 573.455 138.864C573.838 138.864 574.169 138.929 574.449 139.06C574.729 139.191 574.986 139.382 575.219 139.634L574.393 140.446C574.272 140.315 574.136 140.217 573.987 140.152C573.838 140.077 573.656 140.04 573.441 140.04C573.04 140.04 572.727 140.157 572.503 140.39C572.288 140.623 572.181 140.945 572.181 141.356V149H570.921ZM569.283 143.498V142.35H574.295V143.498H569.283ZM575.315 149V142.35H576.575V149H575.315ZM576.575 145.206L576.099 144.996C576.099 144.147 576.295 143.47 576.687 142.966C577.079 142.462 577.643 142.21 578.381 142.21C578.717 142.21 579.02 142.271 579.291 142.392C579.561 142.504 579.813 142.695 580.047 142.966L579.221 143.82C579.081 143.671 578.927 143.563 578.759 143.498C578.591 143.433 578.395 143.4 578.171 143.4C577.704 143.4 577.321 143.549 577.023 143.848C576.724 144.147 576.575 144.599 576.575 145.206ZM583.753 149.14C583.1 149.14 582.512 148.986 581.989 148.678C581.466 148.37 581.051 147.955 580.743 147.432C580.435 146.9 580.281 146.307 580.281 145.654C580.281 145.01 580.435 144.431 580.743 143.918C581.051 143.395 581.466 142.98 581.989 142.672C582.512 142.364 583.1 142.21 583.753 142.21C584.397 142.21 584.98 142.364 585.503 142.672C586.035 142.971 586.455 143.381 586.763 143.904C587.071 144.427 587.225 145.01 587.225 145.654C587.225 146.307 587.071 146.9 586.763 147.432C586.455 147.955 586.035 148.37 585.503 148.678C584.98 148.986 584.397 149.14 583.753 149.14ZM583.753 147.922C584.173 147.922 584.546 147.824 584.873 147.628C585.2 147.432 585.456 147.166 585.643 146.83C585.83 146.485 585.923 146.093 585.923 145.654C585.923 145.225 585.825 144.842 585.629 144.506C585.442 144.17 585.186 143.909 584.859 143.722C584.542 143.526 584.173 143.428 583.753 143.428C583.333 143.428 582.96 143.526 582.633 143.722C582.306 143.909 582.05 144.17 581.863 144.506C581.676 144.842 581.583 145.225 581.583 145.654C581.583 146.093 581.676 146.485 581.863 146.83C582.05 147.166 582.306 147.432 582.633 147.628C582.96 147.824 583.333 147.922 583.753 147.922ZM593.349 149V145.122C593.349 144.618 593.19 144.203 592.873 143.876C592.555 143.549 592.145 143.386 591.641 143.386C591.305 143.386 591.006 143.461 590.745 143.61C590.483 143.759 590.278 143.965 590.129 144.226C589.979 144.487 589.905 144.786 589.905 145.122L589.387 144.828C589.387 144.324 589.499 143.876 589.723 143.484C589.947 143.092 590.259 142.784 590.661 142.56C591.062 142.327 591.515 142.21 592.019 142.21C592.523 142.21 592.966 142.336 593.349 142.588C593.741 142.84 594.049 143.171 594.273 143.582C594.497 143.983 594.609 144.413 594.609 144.87V149H593.349ZM588.645 149V142.35H589.905V149H588.645ZM597.255 149V139.564H598.515V149H597.255ZM595.617 143.498V142.35H600.153V143.498H595.617ZM603.364 149.14C602.991 149.14 602.636 149.093 602.3 149C601.974 148.897 601.67 148.757 601.39 148.58C601.11 148.393 600.868 148.174 600.662 147.922L601.474 147.11C601.717 147.409 601.997 147.633 602.314 147.782C602.632 147.922 602.986 147.992 603.378 147.992C603.77 147.992 604.074 147.927 604.288 147.796C604.503 147.656 604.61 147.465 604.61 147.222C604.61 146.979 604.522 146.793 604.344 146.662C604.176 146.522 603.957 146.41 603.686 146.326C603.416 146.233 603.126 146.144 602.818 146.06C602.52 145.967 602.235 145.85 601.964 145.71C601.694 145.57 601.47 145.379 601.292 145.136C601.124 144.893 601.04 144.571 601.04 144.17C601.04 143.769 601.138 143.423 601.334 143.134C601.53 142.835 601.801 142.607 602.146 142.448C602.501 142.289 602.926 142.21 603.42 142.21C603.943 142.21 604.405 142.303 604.806 142.49C605.217 142.667 605.553 142.938 605.814 143.302L605.002 144.114C604.816 143.871 604.582 143.685 604.302 143.554C604.032 143.423 603.724 143.358 603.378 143.358C603.014 143.358 602.734 143.423 602.538 143.554C602.352 143.675 602.258 143.848 602.258 144.072C602.258 144.296 602.342 144.469 602.51 144.59C602.678 144.711 602.898 144.814 603.168 144.898C603.448 144.982 603.738 145.071 604.036 145.164C604.335 145.248 604.62 145.365 604.89 145.514C605.161 145.663 605.38 145.864 605.548 146.116C605.726 146.368 605.814 146.699 605.814 147.11C605.814 147.735 605.59 148.23 605.142 148.594C604.704 148.958 604.111 149.14 603.364 149.14Z" fill="#24365E"/>
<path d="M326.95 380.14C326.269 380.14 325.63 380.014 325.032 379.762C324.444 379.501 323.926 379.141 323.478 378.684C323.04 378.227 322.694 377.695 322.442 377.088C322.19 376.481 322.064 375.828 322.064 375.128C322.064 374.428 322.19 373.779 322.442 373.182C322.694 372.575 323.044 372.043 323.492 371.586C323.94 371.129 324.463 370.774 325.06 370.522C325.667 370.27 326.325 370.144 327.034 370.144C327.809 370.144 328.523 370.293 329.176 370.592C329.83 370.891 330.376 371.32 330.814 371.88L329.904 372.79C329.596 372.342 329.19 372.001 328.686 371.768C328.182 371.525 327.632 371.404 327.034 371.404C326.325 371.404 325.695 371.563 325.144 371.88C324.603 372.197 324.178 372.636 323.87 373.196C323.572 373.756 323.422 374.4 323.422 375.128C323.422 375.865 323.576 376.514 323.884 377.074C324.192 377.634 324.608 378.073 325.13 378.39C325.653 378.707 326.25 378.866 326.922 378.866C327.604 378.866 328.192 378.735 328.686 378.474C329.19 378.213 329.578 377.83 329.848 377.326C330.119 376.813 330.254 376.187 330.254 375.45L331.052 376.024H326.852V374.82H331.612V375.016C331.612 376.145 331.412 377.093 331.01 377.858C330.618 378.614 330.068 379.183 329.358 379.566C328.658 379.949 327.856 380.14 326.95 380.14ZM333.158 380V373.35H334.418V380H333.158ZM337.652 380V375.982C337.652 375.487 337.498 375.1 337.19 374.82C336.892 374.531 336.514 374.386 336.056 374.386C335.748 374.386 335.473 374.451 335.23 374.582C334.988 374.713 334.792 374.895 334.642 375.128C334.493 375.361 334.418 375.641 334.418 375.968L333.9 375.716C333.9 375.212 334.008 374.773 334.222 374.4C334.446 374.027 334.75 373.737 335.132 373.532C335.515 373.317 335.944 373.21 336.42 373.21C336.887 373.21 337.307 373.313 337.68 373.518C338.063 373.723 338.362 374.013 338.576 374.386C338.8 374.759 338.912 375.203 338.912 375.716V380H337.652ZM342.146 380V375.982C342.146 375.487 341.992 375.1 341.684 374.82C341.386 374.531 341.012 374.386 340.564 374.386C340.256 374.386 339.976 374.451 339.724 374.582C339.482 374.713 339.286 374.895 339.136 375.128C338.987 375.361 338.912 375.641 338.912 375.968L338.198 375.716C338.226 375.203 338.362 374.764 338.604 374.4C338.856 374.027 339.178 373.737 339.57 373.532C339.962 373.317 340.392 373.21 340.858 373.21C341.344 373.21 341.778 373.313 342.16 373.518C342.543 373.723 342.846 374.013 343.07 374.386C343.304 374.759 343.42 375.207 343.42 375.73V380H342.146ZM347.963 380.14C347.356 380.14 346.806 379.991 346.311 379.692C345.816 379.384 345.424 378.969 345.135 378.446C344.855 377.923 344.715 377.335 344.715 376.682C344.715 376.029 344.855 375.441 345.135 374.918C345.424 374.395 345.812 373.98 346.297 373.672C346.792 373.364 347.347 373.21 347.963 373.21C348.467 373.21 348.915 373.317 349.307 373.532C349.708 373.737 350.03 374.027 350.273 374.4C350.516 374.764 350.651 375.189 350.679 375.674V377.676C350.651 378.152 350.516 378.577 350.273 378.95C350.04 379.323 349.722 379.617 349.321 379.832C348.929 380.037 348.476 380.14 347.963 380.14ZM348.173 378.95C348.798 378.95 349.302 378.74 349.685 378.32C350.068 377.891 350.259 377.345 350.259 376.682C350.259 376.225 350.17 375.828 349.993 375.492C349.825 375.147 349.582 374.881 349.265 374.694C348.948 374.498 348.579 374.4 348.159 374.4C347.739 374.4 347.366 374.498 347.039 374.694C346.722 374.89 346.47 375.161 346.283 375.506C346.106 375.842 346.017 376.229 346.017 376.668C346.017 377.116 346.106 377.513 346.283 377.858C346.47 378.194 346.726 378.46 347.053 378.656C347.38 378.852 347.753 378.95 348.173 378.95ZM350.175 380V378.208L350.413 376.584L350.175 374.974V373.35H351.449V380H350.175ZM353.297 380V373.35H354.557V380H353.297ZM353.927 372.02C353.694 372.02 353.503 371.945 353.353 371.796C353.204 371.637 353.129 371.441 353.129 371.208C353.129 370.984 353.204 370.797 353.353 370.648C353.503 370.489 353.694 370.41 353.927 370.41C354.161 370.41 354.352 370.489 354.501 370.648C354.651 370.797 354.725 370.984 354.725 371.208C354.725 371.441 354.651 371.637 354.501 371.796C354.352 371.945 354.161 372.02 353.927 372.02ZM356.414 380V370.004H357.674V380H356.414Z" fill="#24365E"/>
<path d="M19.7748 133L23.7508 123.284H24.7028L28.6648 133H27.2368L23.9748 124.782H24.4648L21.1748 133H19.7748ZM21.6648 130.802V129.654H26.7748V130.802H21.6648ZM32.627 133.14C31.9737 133.14 31.381 132.986 30.849 132.678C30.3264 132.37 29.911 131.955 29.603 131.432C29.3044 130.9 29.155 130.312 29.155 129.668C29.155 129.015 29.3044 128.427 29.603 127.904C29.911 127.381 30.3264 126.971 30.849 126.672C31.381 126.364 31.9737 126.21 32.627 126.21C33.1404 126.21 33.6164 126.308 34.055 126.504C34.4937 126.691 34.8717 126.966 35.189 127.33L34.349 128.17C34.1437 127.927 33.8917 127.745 33.593 127.624C33.3037 127.493 32.9817 127.428 32.627 127.428C32.207 127.428 31.8337 127.526 31.507 127.722C31.1804 127.909 30.9237 128.17 30.737 128.506C30.5504 128.842 30.457 129.229 30.457 129.668C30.457 130.107 30.5504 130.494 30.737 130.83C30.9237 131.166 31.1804 131.432 31.507 131.628C31.8337 131.824 32.207 131.922 32.627 131.922C32.9817 131.922 33.3037 131.861 33.593 131.74C33.8917 131.609 34.1484 131.423 34.363 131.18L35.189 132.02C34.881 132.375 34.503 132.65 34.055 132.846C33.6164 133.042 33.1404 133.14 32.627 133.14ZM39.3399 133.14C38.6866 133.14 38.0939 132.986 37.5619 132.678C37.0393 132.37 36.6239 131.955 36.3159 131.432C36.0173 130.9 35.8679 130.312 35.8679 129.668C35.8679 129.015 36.0173 128.427 36.3159 127.904C36.6239 127.381 37.0393 126.971 37.5619 126.672C38.0939 126.364 38.6866 126.21 39.3399 126.21C39.8533 126.21 40.3293 126.308 40.7679 126.504C41.2066 126.691 41.5846 126.966 41.9019 127.33L41.0619 128.17C40.8566 127.927 40.6046 127.745 40.3059 127.624C40.0166 127.493 39.6946 127.428 39.3399 127.428C38.9199 127.428 38.5466 127.526 38.2199 127.722C37.8933 127.909 37.6366 128.17 37.4499 128.506C37.2633 128.842 37.1699 129.229 37.1699 129.668C37.1699 130.107 37.2633 130.494 37.4499 130.83C37.6366 131.166 37.8933 131.432 38.2199 131.628C38.5466 131.824 38.9199 131.922 39.3399 131.922C39.6946 131.922 40.0166 131.861 40.3059 131.74C40.6046 131.609 40.8613 131.423 41.0759 131.18L41.9019 132.02C41.5939 132.375 41.2159 132.65 40.7679 132.846C40.3293 133.042 39.8533 133.14 39.3399 133.14ZM46.0528 133.14C45.3995 133.14 44.8115 132.986 44.2888 132.678C43.7662 132.37 43.3508 131.955 43.0428 131.432C42.7348 130.9 42.5808 130.307 42.5808 129.654C42.5808 129.01 42.7348 128.431 43.0428 127.918C43.3508 127.395 43.7662 126.98 44.2888 126.672C44.8115 126.364 45.3995 126.21 46.0528 126.21C46.6968 126.21 47.2802 126.364 47.8028 126.672C48.3348 126.971 48.7548 127.381 49.0628 127.904C49.3708 128.427 49.5248 129.01 49.5248 129.654C49.5248 130.307 49.3708 130.9 49.0628 131.432C48.7548 131.955 48.3348 132.37 47.8028 132.678C47.2802 132.986 46.6968 133.14 46.0528 133.14ZM46.0528 131.922C46.4728 131.922 46.8462 131.824 47.1728 131.628C47.4995 131.432 47.7562 131.166 47.9428 130.83C48.1295 130.485 48.2228 130.093 48.2228 129.654C48.2228 129.225 48.1248 128.842 47.9288 128.506C47.7422 128.17 47.4855 127.909 47.1588 127.722C46.8415 127.526 46.4728 127.428 46.0528 127.428C45.6328 127.428 45.2595 127.526 44.9328 127.722C44.6062 127.909 44.3495 128.17 44.1628 128.506C43.9762 128.842 43.8828 129.225 43.8828 129.654C43.8828 130.093 43.9762 130.485 44.1628 130.83C44.3495 131.166 44.6062 131.432 44.9328 131.628C45.2595 131.824 45.6328 131.922 46.0528 131.922ZM53.6185 133.14C53.0772 133.14 52.5872 133.019 52.1485 132.776C51.7192 132.524 51.3832 132.179 51.1405 131.74C50.8978 131.301 50.7765 130.793 50.7765 130.214V126.35H52.0365V130.158C52.0365 130.522 52.0972 130.839 52.2185 131.11C52.3492 131.371 52.5358 131.572 52.7785 131.712C53.0212 131.852 53.3058 131.922 53.6325 131.922C54.1272 131.922 54.5145 131.768 54.7945 131.46C55.0745 131.143 55.2145 130.709 55.2145 130.158V126.35H56.4745V130.214C56.4745 130.793 56.3532 131.301 56.1105 131.74C55.8678 132.179 55.5318 132.524 55.1025 132.776C54.6825 133.019 54.1878 133.14 53.6185 133.14ZM62.8673 133V129.122C62.8673 128.618 62.7086 128.203 62.3913 127.876C62.0739 127.549 61.6633 127.386 61.1593 127.386C60.8233 127.386 60.5246 127.461 60.2633 127.61C60.0019 127.759 59.7966 127.965 59.6473 128.226C59.4979 128.487 59.4233 128.786 59.4233 129.122L58.9053 128.828C58.9053 128.324 59.0173 127.876 59.2413 127.484C59.4653 127.092 59.7779 126.784 60.1793 126.56C60.5806 126.327 61.0333 126.21 61.5373 126.21C62.0413 126.21 62.4846 126.336 62.8673 126.588C63.2593 126.84 63.5673 127.171 63.7913 127.582C64.0153 127.983 64.1273 128.413 64.1273 128.87V133H62.8673ZM58.1633 133V126.35H59.4233V133H58.1633ZM66.7731 133V123.564H68.0331V133H66.7731ZM65.1351 127.498V126.35H69.6711V127.498H65.1351ZM70.9194 133V126.35H72.1794V133H70.9194ZM71.5494 125.02C71.3161 125.02 71.1248 124.945 70.9754 124.796C70.8261 124.637 70.7514 124.441 70.7514 124.208C70.7514 123.984 70.8261 123.797 70.9754 123.648C71.1248 123.489 71.3161 123.41 71.5494 123.41C71.7828 123.41 71.9741 123.489 72.1234 123.648C72.2728 123.797 72.3474 123.984 72.3474 124.208C72.3474 124.441 72.2728 124.637 72.1234 124.796C71.9741 124.945 71.7828 125.02 71.5494 125.02ZM78.7403 133V129.122C78.7403 128.618 78.5816 128.203 78.2643 127.876C77.947 127.549 77.5363 127.386 77.0323 127.386C76.6963 127.386 76.3976 127.461 76.1363 127.61C75.875 127.759 75.6696 127.965 75.5203 128.226C75.371 128.487 75.2963 128.786 75.2963 129.122L74.7783 128.828C74.7783 128.324 74.8903 127.876 75.1143 127.484C75.3383 127.092 75.651 126.784 76.0523 126.56C76.4536 126.327 76.9063 126.21 77.4103 126.21C77.9143 126.21 78.3576 126.336 78.7403 126.588C79.1323 126.84 79.4403 127.171 79.6643 127.582C79.8883 127.983 80.0003 128.413 80.0003 128.87V133H78.7403ZM74.0363 133V126.35H75.2963V133H74.0363ZM84.4642 135.926C83.7829 135.926 83.1762 135.8 82.6442 135.548C82.1216 135.296 81.7016 134.941 81.3842 134.484L82.1962 133.658C82.4669 134.003 82.7889 134.265 83.1622 134.442C83.5356 134.629 83.9789 134.722 84.4922 134.722C85.1736 134.722 85.7102 134.54 86.1022 134.176C86.5036 133.821 86.7042 133.341 86.7042 132.734V131.082L86.9282 129.584L86.7042 128.1V126.35H87.9642V132.734C87.9642 133.369 87.8149 133.924 87.5162 134.4C87.2269 134.876 86.8162 135.249 86.2842 135.52C85.7616 135.791 85.1549 135.926 84.4642 135.926ZM84.4642 132.888C83.8576 132.888 83.3116 132.743 82.8262 132.454C82.3502 132.165 81.9722 131.768 81.6922 131.264C81.4122 130.751 81.2722 130.177 81.2722 129.542C81.2722 128.907 81.4122 128.343 81.6922 127.848C81.9722 127.344 82.3502 126.947 82.8262 126.658C83.3116 126.359 83.8576 126.21 84.4642 126.21C84.9869 126.21 85.4489 126.313 85.8502 126.518C86.2516 126.723 86.5689 127.013 86.8022 127.386C87.0449 127.75 87.1756 128.179 87.1942 128.674V130.438C87.1662 130.923 87.0309 131.353 86.7882 131.726C86.5549 132.09 86.2376 132.375 85.8362 132.58C85.4349 132.785 84.9776 132.888 84.4642 132.888ZM84.7162 131.698C85.1269 131.698 85.4862 131.609 85.7942 131.432C86.1116 131.255 86.3542 131.007 86.5222 130.69C86.6902 130.363 86.7742 129.985 86.7742 129.556C86.7742 129.127 86.6856 128.753 86.5082 128.436C86.3402 128.109 86.1022 127.857 85.7942 127.68C85.4862 127.493 85.1222 127.4 84.7022 127.4C84.2822 127.4 83.9136 127.493 83.5962 127.68C83.2789 127.857 83.0269 128.109 82.8402 128.436C82.6629 128.753 82.5742 129.122 82.5742 129.542C82.5742 129.962 82.6629 130.335 82.8402 130.662C83.0269 130.989 83.2789 131.245 83.5962 131.432C83.9229 131.609 84.2962 131.698 84.7162 131.698ZM95.6518 133.14C94.8864 133.14 94.2331 133 93.6918 132.72C93.1504 132.44 92.6698 132.034 92.2498 131.502L93.1458 130.606C93.4538 131.035 93.8084 131.362 94.2098 131.586C94.6111 131.801 95.1058 131.908 95.6938 131.908C96.2724 131.908 96.7344 131.782 97.0798 131.53C97.4344 131.278 97.6118 130.933 97.6118 130.494C97.6118 130.13 97.5278 129.836 97.3598 129.612C97.1918 129.388 96.9631 129.206 96.6738 129.066C96.3938 128.917 96.0858 128.786 95.7498 128.674C95.4138 128.553 95.0778 128.427 94.7418 128.296C94.4058 128.156 94.0978 127.988 93.8178 127.792C93.5378 127.587 93.3091 127.321 93.1318 126.994C92.9638 126.667 92.8798 126.257 92.8798 125.762C92.8798 125.211 93.0104 124.745 93.2718 124.362C93.5424 123.97 93.9064 123.671 94.3638 123.466C94.8304 123.251 95.3531 123.144 95.9318 123.144C96.5664 123.144 97.1358 123.27 97.6398 123.522C98.1438 123.765 98.5544 124.087 98.8718 124.488L97.9758 125.384C97.6864 125.048 97.3738 124.796 97.0378 124.628C96.7111 124.46 96.3331 124.376 95.9038 124.376C95.3811 124.376 94.9658 124.493 94.6578 124.726C94.3498 124.95 94.1958 125.267 94.1958 125.678C94.1958 126.005 94.2798 126.271 94.4478 126.476C94.6251 126.672 94.8538 126.84 95.1338 126.98C95.4138 127.12 95.7218 127.251 96.0578 127.372C96.4031 127.484 96.7438 127.61 97.0798 127.75C97.4158 127.89 97.7238 128.067 98.0038 128.282C98.2838 128.497 98.5078 128.777 98.6758 129.122C98.8531 129.458 98.9418 129.883 98.9418 130.396C98.9418 131.255 98.6431 131.927 98.0458 132.412C97.4578 132.897 96.6598 133.14 95.6518 133.14ZM102.416 133.056L99.5316 126.35H100.932L103.074 131.6H102.626L104.88 126.35H106.28L103.172 133.056H102.416ZM100.512 135.786L102.472 131.768L103.172 133.056L101.912 135.786H100.512ZM109.291 133.14C108.918 133.14 108.563 133.093 108.227 133C107.9 132.897 107.597 132.757 107.317 132.58C107.037 132.393 106.794 132.174 106.589 131.922L107.401 131.11C107.644 131.409 107.924 131.633 108.241 131.782C108.558 131.922 108.913 131.992 109.305 131.992C109.697 131.992 110 131.927 110.215 131.796C110.43 131.656 110.537 131.465 110.537 131.222C110.537 130.979 110.448 130.793 110.271 130.662C110.103 130.522 109.884 130.41 109.613 130.326C109.342 130.233 109.053 130.144 108.745 130.06C108.446 129.967 108.162 129.85 107.891 129.71C107.62 129.57 107.396 129.379 107.219 129.136C107.051 128.893 106.967 128.571 106.967 128.17C106.967 127.769 107.065 127.423 107.261 127.134C107.457 126.835 107.728 126.607 108.073 126.448C108.428 126.289 108.852 126.21 109.347 126.21C109.87 126.21 110.332 126.303 110.733 126.49C111.144 126.667 111.48 126.938 111.741 127.302L110.929 128.114C110.742 127.871 110.509 127.685 110.229 127.554C109.958 127.423 109.65 127.358 109.305 127.358C108.941 127.358 108.661 127.423 108.465 127.554C108.278 127.675 108.185 127.848 108.185 128.072C108.185 128.296 108.269 128.469 108.437 128.59C108.605 128.711 108.824 128.814 109.095 128.898C109.375 128.982 109.664 129.071 109.963 129.164C110.262 129.248 110.546 129.365 110.817 129.514C111.088 129.663 111.307 129.864 111.475 130.116C111.652 130.368 111.741 130.699 111.741 131.11C111.741 131.735 111.517 132.23 111.069 132.594C110.63 132.958 110.038 133.14 109.291 133.14ZM114.174 133V123.564H115.434V133H114.174ZM112.536 127.498V126.35H117.072V127.498H112.536ZM121.181 133.14C120.518 133.14 119.921 132.991 119.389 132.692C118.857 132.384 118.437 131.969 118.129 131.446C117.821 130.923 117.667 130.331 117.667 129.668C117.667 129.015 117.816 128.427 118.115 127.904C118.423 127.381 118.833 126.971 119.347 126.672C119.869 126.364 120.453 126.21 121.097 126.21C121.713 126.21 122.254 126.35 122.721 126.63C123.197 126.91 123.565 127.297 123.827 127.792C124.097 128.287 124.233 128.847 124.233 129.472C124.233 129.565 124.228 129.668 124.219 129.78C124.209 129.883 124.191 130.004 124.163 130.144H118.549V129.094H123.491L123.029 129.5C123.029 129.052 122.949 128.674 122.791 128.366C122.632 128.049 122.408 127.806 122.119 127.638C121.829 127.461 121.479 127.372 121.069 127.372C120.639 127.372 120.261 127.465 119.935 127.652C119.608 127.839 119.356 128.1 119.179 128.436C119.001 128.772 118.913 129.169 118.913 129.626C118.913 130.093 119.006 130.503 119.193 130.858C119.379 131.203 119.645 131.474 119.991 131.67C120.336 131.857 120.733 131.95 121.181 131.95C121.554 131.95 121.895 131.885 122.203 131.754C122.52 131.623 122.791 131.427 123.015 131.166L123.827 131.992C123.509 132.365 123.117 132.65 122.651 132.846C122.193 133.042 121.703 133.14 121.181 133.14ZM125.607 133V126.35H126.867V133H125.607ZM130.101 133V128.982C130.101 128.487 129.947 128.1 129.639 127.82C129.34 127.531 128.962 127.386 128.505 127.386C128.197 127.386 127.921 127.451 127.679 127.582C127.436 127.713 127.24 127.895 127.091 128.128C126.941 128.361 126.867 128.641 126.867 128.968L126.349 128.716C126.349 128.212 126.456 127.773 126.671 127.4C126.895 127.027 127.198 126.737 127.581 126.532C127.963 126.317 128.393 126.21 128.869 126.21C129.335 126.21 129.755 126.313 130.129 126.518C130.511 126.723 130.81 127.013 131.025 127.386C131.249 127.759 131.361 128.203 131.361 128.716V133H130.101ZM134.595 133V128.982C134.595 128.487 134.441 128.1 134.133 127.82C133.834 127.531 133.461 127.386 133.013 127.386C132.705 127.386 132.425 127.451 132.173 127.582C131.93 127.713 131.734 127.895 131.585 128.128C131.435 128.361 131.361 128.641 131.361 128.968L130.647 128.716C130.675 128.203 130.81 127.764 131.053 127.4C131.305 127.027 131.627 126.737 132.019 126.532C132.411 126.317 132.84 126.21 133.307 126.21C133.792 126.21 134.226 126.313 134.609 126.518C134.991 126.723 135.295 127.013 135.519 127.386C135.752 127.759 135.869 128.207 135.869 128.73V133H134.595Z" fill="#24365E"/>
<path d="M330.411 56.4239C330.112 56.2783 329.763 56.2783 329.467 56.4222L322.062 60.1082H337.813L330.411 56.4239ZM329.085 55.6456C329.623 55.3835 330.252 55.3835 330.793 55.6473L338.816 59.6405C339.485 59.9666 339.253 60.9739 338.508 60.9739H321.366C320.622 60.9739 320.389 59.9687 321.057 59.6415L329.084 55.6456H329.085ZM338.359 73.1407V72.275H321.478V73.1407H338.359ZM338.575 74.0064H321.262C320.903 74.0064 320.612 73.7156 320.612 73.3571V72.0586C320.612 71.7001 320.903 71.4093 321.262 71.4093H338.575C338.934 71.4093 339.225 71.7001 339.225 72.0586V73.3571C339.225 73.7156 338.934 74.0064 338.575 74.0064ZM332.36 65.3562C333.234 65.6578 333.832 66.4829 333.832 67.4221C333.832 68.6289 332.854 69.607 331.647 69.607C330.84 69.607 330.111 69.1663 329.73 68.4713C329.615 68.2617 329.351 68.185 329.142 68.3C328.932 68.415 328.856 68.6781 328.971 68.8877C329.503 69.8571 330.521 70.4728 331.647 70.4728C333.332 70.4728 334.697 69.107 334.697 67.4221C334.697 66.1109 333.863 64.9591 332.643 64.5379C332.417 64.4599 332.17 64.5799 332.092 64.8058C332.014 65.0318 332.134 65.2782 332.36 65.3562L332.36 65.3562Z" fill="#FFFBFB"/>
<path d="M330.36 64.62C330.36 63.4133 329.381 62.435 328.175 62.435C326.968 62.435 325.99 63.4133 325.99 64.62C325.99 65.8266 326.968 66.805 328.175 66.805C329.381 66.805 330.36 65.8266 330.36 64.62ZM331.225 64.62C331.225 66.3047 329.859 67.6707 328.175 67.6707C326.49 67.6707 325.124 66.3047 325.124 64.62C325.124 62.9352 326.49 61.5693 328.175 61.5693C329.859 61.5693 331.225 62.9352 331.225 64.62ZM322.18 60.5412V71.8423C322.18 72.0814 322.373 72.2752 322.613 72.2752C322.852 72.2752 323.045 72.0814 323.045 71.8423V60.5412C323.045 60.3022 322.852 60.1084 322.613 60.1084C322.373 60.1084 322.18 60.3022 322.18 60.5412ZM336.824 60.5412V71.8423C336.824 72.0814 337.018 72.2752 337.257 72.2752C337.496 72.2752 337.69 72.0814 337.69 71.8423V60.5412C337.69 60.3022 337.496 60.1084 337.257 60.1084C337.018 60.1084 336.824 60.3022 336.824 60.5412Z" fill="#FFFBFB"/>
<defs>
<linearGradient id="paint0_linear_808_40507" x1="366" y1="164.5" x2="300" y2="164.5" gradientUnits="userSpaceOnUse">
<stop stop-color="#36A8FF"/>
<stop offset="1" stop-color="#7D59FE"/>
</linearGradient>
<linearGradient id="paint1_linear_808_40507" x1="367" y1="329.5" x2="310" y2="329.5" gradientUnits="userSpaceOnUse">
<stop stop-color="#36A8FF"/>
<stop offset="1" stop-color="#7D59FE"/>
</linearGradient>
<linearGradient id="paint2_linear_808_40507" x1="393" y1="165" x2="274" y2="165" gradientUnits="userSpaceOnUse">
<stop stop-color="#36A8FF"/>
<stop offset="1" stop-color="#7D59FE"/>
</linearGradient>
<linearGradient id="paint3_linear_808_40507" x1="356" y1="329.5" x2="321" y2="329.5" gradientUnits="userSpaceOnUse">
<stop stop-color="#36A8FF"/>
<stop offset="1" stop-color="#7D59FE"/>
</linearGradient>
<linearGradient id="paint4_linear_808_40507" x1="524" y1="144.5" x2="467" y2="144.5" gradientUnits="userSpaceOnUse">
<stop stop-color="#36A8FF"/>
<stop offset="1" stop-color="#7D59FE"/>
</linearGradient>
<linearGradient id="paint5_linear_808_40507" x1="513" y1="144.5" x2="478" y2="144.5" gradientUnits="userSpaceOnUse">
<stop stop-color="#36A8FF"/>
<stop offset="1" stop-color="#7D59FE"/>
</linearGradient>
<linearGradient id="paint6_linear_808_40507" x1="204" y1="129.5" x2="147" y2="129.5" gradientUnits="userSpaceOnUse">
<stop stop-color="#36A8FF"/>
<stop offset="1" stop-color="#7D59FE"/>
</linearGradient>
<linearGradient id="paint7_linear_808_40507" x1="193" y1="129.5" x2="158" y2="129.5" gradientUnits="userSpaceOnUse">
<stop stop-color="#36A8FF"/>
<stop offset="1" stop-color="#7D59FE"/>
</linearGradient>
<linearGradient id="paint8_linear_808_40507" x1="359" y1="66.5" x2="302" y2="66.5" gradientUnits="userSpaceOnUse">
<stop stop-color="#36A8FF"/>
<stop offset="1" stop-color="#7D59FE"/>
</linearGradient>
<linearGradient id="paint9_linear_808_40507" x1="347" y1="65.5" x2="312" y2="65.5" gradientUnits="userSpaceOnUse">
<stop stop-color="#36A8FF"/>
<stop offset="1" stop-color="#7D59FE"/>
</linearGradient>
<linearGradient id="paint10_linear_808_40507" x1="344.667" y1="145.484" x2="320.684" y2="182.976" gradientUnits="userSpaceOnUse">
<stop offset="0.0735241" stop-color="#8C47FE"/>
<stop offset="1" stop-color="#19C8FF"/>
</linearGradient>
</defs>
</svg>
