<svg width="31" height="28" viewBox="0 0 31 28" fill="none" xmlns="http://www.w3.org/2000/svg">
<path d="M1 14.614H25.0833" stroke="#A6A5E1" stroke-width="2" stroke-miterlimit="10" stroke-linecap="round" stroke-linejoin="round"/>
<path d="M6.35503 26.5003H19.7283C23.9358 26.5003 25.0408 25.4803 25.0833 21.4428V11.3136C25.0833 7.09204 24.0066 6.02954 19.7283 6.02954H6.35503C5.95837 6.02954 5.58999 6.04371 5.24999 6.05787C1.8925 6.25621 1 7.48871 1 11.3136" stroke="#A6A5E1" stroke-width="2" stroke-linecap="round" stroke-linejoin="round"/>
<path d="M29.3333 16.1866V6.28416C29.3333 2.0625 28.2566 1 23.9783 1H10.605C6.39754 1 5.2925 2.02 5.25 6.05749C5.59 6.04333 5.95837 6.02916 6.35504 6.02916H19.7283C24.0066 6.02916 25.0833 7.09166 25.0833 11.3133" stroke="#A6A5E1" stroke-width="2" stroke-linecap="round" stroke-linejoin="round"/>
<path d="M5.60449 21.9805H8.04111" stroke="#A6A5E1" stroke-width="2" stroke-miterlimit="10" stroke-linecap="round" stroke-linejoin="round"/>
<path d="M11.0732 21.9805H15.9466" stroke="#A6A5E1" stroke-width="2" stroke-miterlimit="10" stroke-linecap="round" stroke-linejoin="round"/>
</svg>
