<svg width="21" height="29" viewBox="0 0 21 29" fill="none" xmlns="http://www.w3.org/2000/svg">
<path d="M19.1939 6.80843C19.452 6.80843 19.6611 6.59928 19.6611 6.34125V1.46717C19.6611 1.2092 19.452 1 19.1939 1H1.46717C1.20914 1 1 1.20914 1 1.46717V26.3278C1 26.499 1.0936 26.6564 1.244 26.7382L3.45985 27.9433C3.59901 28.019 3.76703 28.019 3.90619 27.9433L5.89881 26.8597L7.89149 27.9433C7.96104 27.9811 8.03788 28 8.11466 28C8.19144 28 8.26827 27.9811 8.33783 27.9433L10.3306 26.8596L12.3232 27.9432C12.4623 28.0188 12.6303 28.0189 12.7695 27.9432L14.7622 26.8596L16.7549 27.9432C16.894 28.0189 17.062 28.0189 17.2012 27.9432L19.417 26.7381C19.5674 26.6563 19.661 26.4989 19.661 26.3277V8.08528C19.661 7.82731 19.4519 7.61811 19.1938 7.61811C18.9358 7.61811 18.7267 7.82726 18.7267 8.08528V26.05L16.978 27.0011L14.9854 25.9174C14.8462 25.8417 14.6782 25.8417 14.539 25.9174L12.5463 27.0011L10.5537 25.9174C10.4146 25.8418 10.2466 25.8417 10.1074 25.9174L8.11471 27.0011L6.12204 25.9174C5.98287 25.8417 5.81486 25.8417 5.67569 25.9174L3.68307 27.0011L1.93435 26.0501V1.93429H18.7268V6.34125C18.7268 6.59928 18.9359 6.80843 19.1939 6.80843Z" fill="#A6A5E1" stroke="#A6A5E1" stroke-width="0.7"/>
<path d="M14.3949 4.27002H6.26698C6.00895 4.27002 5.7998 4.47916 5.7998 4.73719C5.7998 4.99522 6.0089 5.20437 6.26698 5.20437H14.395C14.653 5.20437 14.8622 4.99522 14.8622 4.73719C14.8622 4.47916 14.653 4.27002 14.3949 4.27002Z" fill="#A6A5E1" stroke="#A6A5E1" stroke-width="0.7"/>
<path d="M15.895 8.38062H12.4672C12.2091 8.38062 12 8.58976 12 8.84779C12 9.10577 12.2091 9.31496 12.4672 9.31496H15.895C16.153 9.31496 16.3622 9.10582 16.3622 8.84779C16.3621 8.58976 16.153 8.38062 15.895 8.38062Z" fill="#A6A5E1" stroke="#A6A5E1" stroke-width="0.7"/>
<path d="M10.8472 8.38062H4.766C4.50797 8.38062 4.29883 8.58976 4.29883 8.84779C4.29883 9.10577 4.50792 9.31496 4.766 9.31496H10.8472C11.1053 9.31496 11.3144 9.10582 11.3144 8.84779C11.3144 8.58976 11.1053 8.38062 10.8472 8.38062Z" fill="#A6A5E1" stroke="#A6A5E1" stroke-width="0.7"/>
<path d="M15.8952 12.958H7.42225C7.16422 12.958 6.95508 13.1672 6.95508 13.4252C6.95508 13.6832 7.16417 13.8924 7.42225 13.8924H15.8952C16.1533 13.8924 16.3624 13.6832 16.3624 13.4252C16.3624 13.1672 16.1533 12.958 15.8952 12.958Z" fill="#A6A5E1" stroke="#A6A5E1" stroke-width="0.7"/>
<path d="M5.80202 12.958H4.766C4.50797 12.958 4.29883 13.1672 4.29883 13.4252C4.29883 13.6832 4.50792 13.8924 4.766 13.8924H5.80202C6.06005 13.8924 6.2692 13.6832 6.2692 13.4252C6.26914 13.1672 6.06005 12.958 5.80202 12.958Z" fill="#A6A5E1" stroke="#A6A5E1" stroke-width="0.7"/>
<path d="M15.8945 10.6694H4.766C4.50797 10.6694 4.29883 10.8786 4.29883 11.1366C4.29883 11.3946 4.50792 11.6038 4.766 11.6038H15.8945C16.1526 11.6038 16.3617 11.3946 16.3617 11.1366C16.3617 10.8786 16.1526 10.6694 15.8945 10.6694Z" fill="#A6A5E1" stroke="#A6A5E1" stroke-width="0.7"/>
<path d="M15.8946 20.2622H13.7748C13.5168 20.2622 13.3076 20.4714 13.3076 20.7294C13.3076 20.9874 13.5167 21.1966 13.7748 21.1966H15.8946C16.1526 21.1966 16.3618 20.9874 16.3618 20.7294C16.3618 20.4714 16.1526 20.2622 15.8946 20.2622Z" fill="#A6A5E1" stroke="#A6A5E1" stroke-width="0.7"/>
<path d="M15.895 22.1309H11.5951C11.3371 22.1309 11.1279 22.34 11.1279 22.598C11.1279 22.856 11.337 23.0652 11.5951 23.0652H15.895C16.153 23.0652 16.3621 22.8561 16.3621 22.598C16.3621 22.34 16.153 22.1309 15.895 22.1309Z" fill="#A6A5E1" stroke="#A6A5E1" stroke-width="0.7"/>
<path d="M12.0307 20.2622H4.766C4.50797 20.2622 4.29883 20.4714 4.29883 20.7294C4.29883 20.9874 4.50792 21.1966 4.766 21.1966H12.0307C12.2887 21.1966 12.4979 20.9874 12.4979 20.7294C12.4979 20.4714 12.2887 20.2622 12.0307 20.2622Z" fill="#A6A5E1" stroke="#A6A5E1" stroke-width="0.7"/>
</svg>
