<svg width="24" height="25" viewBox="0 0 24 25" fill="none" xmlns="http://www.w3.org/2000/svg">
<path d="M6.46154 15.6155H0.923077C0.413538 15.6155 0 16.0261 0 16.5321V22.9488C0 23.4548 0.413538 23.8655 0.923077 23.8655H6.46154C6.97108 23.8655 7.38462 23.4548 7.38462 22.9488V16.5321C7.38462 16.0261 6.97108 15.6155 6.46154 15.6155ZM6.46154 8.28215H0.923077C0.413538 8.28215 0 8.69281 0 9.19881V13.7821C0 14.2881 0.413538 14.6988 0.923077 14.6988H6.46154C6.97108 14.6988 7.38462 14.2881 7.38462 13.7821V9.19881C7.38462 8.69281 6.97108 8.28215 6.46154 8.28215ZM14.7692 1.86548H9.23077C8.72123 1.86548 8.30769 2.27615 8.30769 2.78215V10.1155C8.30769 10.6215 8.72123 11.0321 9.23077 11.0321H14.7692C15.2788 11.0321 15.6923 10.6215 15.6923 10.1155V2.78215C15.6923 2.27615 15.2788 1.86548 14.7692 1.86548ZM14.7692 11.9488H9.23077C8.72123 11.9488 8.30769 12.3595 8.30769 12.8655V16.5321C8.30769 17.0381 8.72123 17.4488 9.23077 17.4488H14.7692C15.2788 17.4488 15.6923 17.0381 15.6923 16.5321V12.8655C15.6923 12.3595 15.2788 11.9488 14.7692 11.9488ZM23.0769 16.5321H17.5385C17.0289 16.5321 16.6154 16.9428 16.6154 17.4488V22.9488C16.6154 23.4548 17.0289 23.8655 17.5385 23.8655H23.0769C23.5865 23.8655 24 23.4548 24 22.9488V17.4488C24 16.9428 23.5865 16.5321 23.0769 16.5321ZM23.0769 1.86548H17.5385C17.0289 1.86548 16.6154 2.27615 16.6154 2.78215V7.36548C16.6154 7.87148 17.0289 8.28215 17.5385 8.28215H23.0769C23.5865 8.28215 24 7.87148 24 7.36548V2.78215C24 2.27615 23.5865 1.86548 23.0769 1.86548ZM7.38462 2.32381C7.38462 2.57681 7.17785 2.78215 6.92308 2.78215H0.461538C0.206769 2.78215 0 2.57681 0 2.32381C0 2.07081 0.206769 1.86548 0.461538 1.86548H6.92308C7.17785 1.86548 7.38462 2.07081 7.38462 2.32381ZM7.38462 4.15715C7.38462 4.41015 7.17785 4.61548 6.92308 4.61548H0.461538C0.206769 4.61548 0 4.41015 0 4.15715C0 3.90415 0.206769 3.69881 0.461538 3.69881H6.92308C7.17785 3.69881 7.38462 3.90415 7.38462 4.15715ZM7.38462 5.99048C7.38462 6.24348 7.17785 6.44881 6.92308 6.44881H0.461538C0.206769 6.44881 0 6.24348 0 5.99048C0 5.73748 0.206769 5.53215 0.461538 5.53215H6.92308C7.17785 5.53215 7.38462 5.73748 7.38462 5.99048ZM15.6923 19.7405C15.6923 19.9935 15.4855 20.1988 15.2308 20.1988H8.76923C8.51446 20.1988 8.30769 19.9935 8.30769 19.7405C8.30769 19.4875 8.51446 19.2821 8.76923 19.2821H15.2308C15.4855 19.2821 15.6923 19.4875 15.6923 19.7405ZM15.6923 21.5738C15.6923 21.8268 15.4855 22.0321 15.2308 22.0321H8.76923C8.51446 22.0321 8.30769 21.8268 8.30769 21.5738C8.30769 21.3208 8.51446 21.1155 8.76923 21.1155H15.2308C15.4855 21.1155 15.6923 21.3208 15.6923 21.5738ZM15.6923 23.4071C15.6923 23.6601 15.4855 23.8655 15.2308 23.8655H8.76923C8.51446 23.8655 8.30769 23.6601 8.30769 23.4071C8.30769 23.1541 8.51446 22.9488 8.76923 22.9488H15.2308C15.4855 22.9488 15.6923 23.1541 15.6923 23.4071ZM24 10.5738C24 10.8268 23.7932 11.0321 23.5385 11.0321H17.0769C16.8222 11.0321 16.6154 10.8268 16.6154 10.5738C16.6154 10.3208 16.8222 10.1155 17.0769 10.1155H23.5385C23.7932 10.1155 24 10.3208 24 10.5738ZM24 12.4071C24 12.6601 23.7932 12.8655 23.5385 12.8655H17.0769C16.8222 12.8655 16.6154 12.6601 16.6154 12.4071C16.6154 12.1541 16.8222 11.9488 17.0769 11.9488H23.5385C23.7932 11.9488 24 12.1541 24 12.4071ZM24 14.2405C24 14.4935 23.7932 14.6988 23.5385 14.6988H17.0769C16.8222 14.6988 16.6154 14.4935 16.6154 14.2405C16.6154 13.9875 16.8222 13.7821 17.0769 13.7821H23.5385C23.7932 13.7821 24 13.9875 24 14.2405Z" fill="#A2CBCB"/>
</svg>
