<svg width="29" height="25" viewBox="0 0 29 25" fill="none" xmlns="http://www.w3.org/2000/svg">
<path d="M25.9156 5.31383C23.4157 4.92603 21.614 1.76782 19.4927 1.00503C19.2398 0.914147 17.8817 2.08327 17.6251 2.25354C13.959 4.68611 9.99547 6.60559 6.3096 9.01882C5.4865 9.55768 1.34423 11.1571 1.04395 12.1285C0.990525 12.3018 0.980395 12.5504 1.04395 12.5628C1.99133 12.7486 2.96914 13.5178 3.76997 14.0526C4.2826 14.3949 8.79745 17.8795 9.16864 17.5962C13.1053 14.5904 21.5909 8.74859 26.2146 5.75682" stroke="#A2CBCB" stroke-opacity="0.9" stroke-width="1.6" stroke-linecap="round" stroke-linejoin="round"/>
<path d="M26.9547 8.05176C21.3176 10.8141 13.7187 18.9971 9.2365 21.4133C9.03569 21.5215 7.4675 20.2194 7.2096 20.0804C5.59947 19.2122 4.0921 18.0495 2.70117 16.8223" stroke="#A2CBCB" stroke-opacity="0.9" stroke-width="1.6" stroke-linecap="round" stroke-linejoin="round"/>
<path d="M27.4841 10.7252C26.0388 10.0776 10.7967 24.5732 9.32324 23.9364C7.84991 23.2998 4.80364 20.864 2.98535 19.4635" stroke="#A2CBCB" stroke-opacity="0.9" stroke-width="1.6" stroke-linecap="round" stroke-linejoin="round"/>
<path d="M12.9939 7.48865C16.4795 3.3244 19.3529 11.6142 13.4794 10.7506C12.269 10.5728 11.6007 7.9262 12.5454 7.2468" stroke="#A2CBCB" stroke-opacity="0.9" stroke-width="1.6" stroke-linecap="round" stroke-linejoin="round"/>
<path d="M5.18848 11.7173C5.81485 12.5599 6.26473 11.9824 7.42951 11.1133" stroke="#A2CBCB" stroke-opacity="0.9" stroke-width="1.6" stroke-linecap="round" stroke-linejoin="round"/>
<path d="M21.3965 6.24018C22.0008 5.8552 21.5084 6.17404 21.5084 5.43506" stroke="#A2CBCB" stroke-opacity="0.9" stroke-width="1.6" stroke-linecap="round" stroke-linejoin="round"/>
</svg>
